M48
; DRILL file {KiCad (6.0.10-0)} date Friday, January 20, 2023 at 06:51:18 PM
; FORMAT={-:-/ absolute / inch / decimal}
; #@! TF.CreationDate,2023-01-20T18:51:18-05:00
; #@! TF.GenerationSoftware,Kicad,Pcbnew,(6.0.10-0)
; #@! TF.FileFunction,Plated,1,4,PTH
FMAT,2
INCH
; #@! TA.AperFunction,Plated,PTH,ViaDrill
T1C0.0157
; #@! TA.AperFunction,Plated,PTH,ComponentDrill
T2C0.0335
; #@! TA.AperFunction,Plated,PTH,ComponentDrill
T3C0.0394
; #@! TA.AperFunction,Plated,PTH,ViaDrill
T4C0.1000
%
G90
G05
T1
X5.0525Y-3.734
X5.1655Y-4.028
X5.1655Y-4.069
X5.1655Y-4.112
X5.2125Y-4.164
X5.2615Y-4.422
X5.3475Y-4.006
X5.5095Y-3.973
X5.5935Y-4.186
X5.639Y-4.2075
X5.7125Y-4.147
X5.7425Y-4.057
X5.7455Y-4.1
X5.75Y-4.2095
X5.768Y-3.984
X5.768Y-4.025
X5.8265Y-4.178
X5.9345Y-4.147
X5.9965Y-4.099
X6.0975Y-4.056
X6.0975Y-4.312
X6.1465Y-3.983
X6.1475Y-4.051
X6.1955Y-4.312
X6.1965Y-3.953
X6.2965Y-4.011
X6.2965Y-4.213
X6.2965Y-4.313
T2
X5.5975Y-4.3035
X5.7465Y-4.3035
X5.8955Y-4.3035
T3
X5.0965Y-4.534
X5.1965Y-4.534
X5.2965Y-4.534
X5.3965Y-4.534
X5.4965Y-3.734
X5.4965Y-4.534
X5.5965Y-3.734
X5.5965Y-4.534
X5.6965Y-3.734
X5.6965Y-4.534
X5.7965Y-3.734
X5.7965Y-4.534
X5.8965Y-3.734
X5.8965Y-4.534
X5.9965Y-3.734
X5.9965Y-4.534
X6.0965Y-3.734
X6.0965Y-4.534
X6.1965Y-3.734
X6.1965Y-4.534
X6.2965Y-3.734
X6.2965Y-4.534
X6.3965Y-3.734
X6.3965Y-4.534
X6.4965Y-3.734
X6.4965Y-4.534
X6.5965Y-3.734
X6.5965Y-4.534
T4
X4.9465Y-3.784
X4.95Y-4.484
X6.7465Y-3.784
X6.7465Y-4.484
T0
M30
