%TF.GenerationSoftware,KiCad,Pcbnew,(6.0.10-0)*%
%TF.CreationDate,2023-01-20T18:51:18-05:00*%
%TF.ProjectId,EyeSPI-Featherwing,45796553-5049-42d4-9665-617468657277,1.0.0*%
%TF.SameCoordinates,Original*%
%TF.FileFunction,Copper,L2,Inr*%
%TF.FilePolarity,Positive*%
%FSLAX46Y46*%
G04 Gerber Fmt 4.6, Leading zero omitted, Abs format (unit mm)*
G04 Created by KiCad (PCBNEW (6.0.10-0)) date 2023-01-20 18:51:18*
%MOMM*%
%LPD*%
G01*
G04 APERTURE LIST*
G04 Aperture macros list*
%AMRoundRect*
0 Rectangle with rounded corners*
0 $1 Rounding radius*
0 $2 $3 $4 $5 $6 $7 $8 $9 X,Y pos of 4 corners*
0 Add a 4 corners polygon primitive as box body*
4,1,4,$2,$3,$4,$5,$6,$7,$8,$9,$2,$3,0*
0 Add four circle primitives for the rounded corners*
1,1,$1+$1,$2,$3*
1,1,$1+$1,$4,$5*
1,1,$1+$1,$6,$7*
1,1,$1+$1,$8,$9*
0 Add four rect primitives between the rounded corners*
20,1,$1+$1,$2,$3,$4,$5,0*
20,1,$1+$1,$4,$5,$6,$7,0*
20,1,$1+$1,$6,$7,$8,$9,0*
20,1,$1+$1,$8,$9,$2,$3,0*%
G04 Aperture macros list end*
%TA.AperFunction,ComponentPad*%
%ADD10RoundRect,0.250000X-0.675000X-0.675000X0.675000X-0.675000X0.675000X0.675000X-0.675000X0.675000X0*%
%TD*%
%TA.AperFunction,ComponentPad*%
%ADD11R,1.700000X1.700000*%
%TD*%
%TA.AperFunction,ComponentPad*%
%ADD12O,1.700000X1.700000*%
%TD*%
%TA.AperFunction,ViaPad*%
%ADD13C,3.200000*%
%TD*%
%TA.AperFunction,ViaPad*%
%ADD14C,0.800000*%
%TD*%
%TA.AperFunction,Conductor*%
%ADD15C,0.250000*%
%TD*%
G04 APERTURE END LIST*
D10*
%TO.N,/GPIO2*%
%TO.C,J108*%
X142176500Y-109308343D03*
%TD*%
%TO.N,/~{MEM_CS}*%
%TO.C,J109*%
X149745700Y-109308343D03*
%TD*%
%TO.N,/GPIO1*%
%TO.C,J107*%
X145961100Y-109308343D03*
%TD*%
D11*
%TO.N,/VBAT*%
%TO.C,J102*%
X139611100Y-94843600D03*
D12*
%TO.N,/EN*%
X142151100Y-94843600D03*
%TO.N,/VBUS*%
X144691100Y-94843600D03*
%TO.N,/13*%
X147231100Y-94843600D03*
%TO.N,/12*%
X149771100Y-94843600D03*
%TO.N,/11*%
X152311100Y-94843600D03*
%TO.N,/10*%
X154851100Y-94843600D03*
%TO.N,/9*%
X157391100Y-94843600D03*
%TO.N,/6*%
X159931100Y-94843600D03*
%TO.N,/5*%
X162471100Y-94843600D03*
%TO.N,/SCL*%
X165011100Y-94843600D03*
%TO.N,/SDA*%
X167551100Y-94843600D03*
%TD*%
D11*
%TO.N,/~{RST}*%
%TO.C,J101*%
X129451100Y-115163600D03*
D12*
%TO.N,+3V3*%
X131991100Y-115163600D03*
%TO.N,/AREF*%
X134531100Y-115163600D03*
%TO.N,GND*%
X137071100Y-115163600D03*
%TO.N,/A0*%
X139611100Y-115163600D03*
%TO.N,/A1*%
X142151100Y-115163600D03*
%TO.N,/A2*%
X144691100Y-115163600D03*
%TO.N,/A3*%
X147231100Y-115163600D03*
%TO.N,/A4*%
X149771100Y-115163600D03*
%TO.N,/A5*%
X152311100Y-115163600D03*
%TO.N,/SCK*%
X154851100Y-115163600D03*
%TO.N,/MOSI*%
X157391100Y-115163600D03*
%TO.N,/MISO*%
X159931100Y-115163600D03*
%TO.N,/0 RX*%
X162471100Y-115163600D03*
%TO.N,/1 TX*%
X165011100Y-115163600D03*
%TO.N,GND*%
X167551100Y-115163600D03*
%TD*%
D13*
%TO.N,*%
X171361100Y-113893600D03*
X171361100Y-96113600D03*
X125730000Y-113893600D03*
X125641100Y-96113600D03*
D14*
%TO.N,GND*%
X135826500Y-101752400D03*
X128333500Y-94843600D03*
%TO.N,/~{RST}*%
X159931100Y-107010200D03*
X159931100Y-101879400D03*
%TO.N,/EYESPI_SCK*%
X131203700Y-102311200D03*
X154876500Y-109524800D03*
%TO.N,/EYESPI_MOSI*%
X131203700Y-103352600D03*
X157365700Y-109524800D03*
%TO.N,/EYESPI_MISO*%
X131203700Y-104444800D03*
X159931100Y-109550200D03*
%TO.N,/TFT_DC*%
X157391100Y-100406200D03*
X139941300Y-100914200D03*
%TO.N,/~{TFT_RST}*%
X146506600Y-101193600D03*
X156121100Y-101168200D03*
%TO.N,/~{TFT_CS}*%
X156146500Y-102895400D03*
X146506600Y-102235000D03*
%TO.N,/~{CARD_CS}*%
X154876500Y-103022400D03*
X145859500Y-103047800D03*
%TO.N,/~{MEM_CS}*%
X132397500Y-105765600D03*
%TO.N,/EYESPI_SCL*%
X145097500Y-105333800D03*
X150736300Y-105333800D03*
%TO.N,/EYESPI_SDA*%
X147993100Y-106121200D03*
X142074900Y-106324400D03*
%TO.N,/INT*%
X143230183Y-106871700D03*
X146050000Y-106921300D03*
%TO.N,/~{TS_CS}*%
X145935700Y-104140000D03*
X152311100Y-104114600D03*
%TO.N,+3V3*%
X133642100Y-112318800D03*
%TD*%
D15*
%TO.N,/EYESPI_SCK*%
X153829700Y-110571600D02*
X139464100Y-110571600D01*
X154876500Y-109524800D02*
X153829700Y-110571600D01*
X139464100Y-110571600D02*
X131203700Y-102311200D01*
%TO.N,/EYESPI_MOSI*%
X157365700Y-109524800D02*
X155868900Y-111021600D01*
X155868900Y-111021600D02*
X138872700Y-111021600D01*
X138872700Y-111021600D02*
X131203700Y-103352600D01*
%TO.N,/EYESPI_MISO*%
X131203700Y-105597105D02*
X131203700Y-104444800D01*
X137078195Y-111471600D02*
X131203700Y-105597105D01*
X159931100Y-109550200D02*
X158009700Y-111471600D01*
X158009700Y-111471600D02*
X137078195Y-111471600D01*
%TD*%
M02*
