M48
; DRILL file {KiCad (6.0.11-0)} date Sunday, February 12, 2023 at 12:49:48 PM
; FORMAT={-:-/ absolute / inch / decimal}
; #@! TF.CreationDate,2023-02-12T12:49:48-05:00
; #@! TF.GenerationSoftware,Kicad,Pcbnew,(6.0.11-0)
; #@! TF.FileFunction,Plated,1,2,PTH
FMAT,2
INCH
; #@! TA.AperFunction,Plated,PTH,ViaDrill
T1C0.0157
; #@! TA.AperFunction,Plated,PTH,ComponentDrill
T2C0.0335
; #@! TA.AperFunction,Plated,PTH,ComponentDrill
T3C0.0394
%
G90
G05
T1
X4.9365Y-3.734
X4.9365Y-4.534
X5.2145Y-4.104
X5.2145Y-4.262
X5.2765Y-4.392
X5.5305Y-4.394
X5.6645Y-4.396
X5.9045Y-4.0169
X5.9085Y-4.396
X5.9945Y-4.396
X5.9965Y-3.956
X5.9965Y-4.0936
X6.0965Y-3.954
X6.0965Y-4.1153
X6.1925Y-3.946
X6.1925Y-4.182
X6.2965Y-4.012
X6.2965Y-4.154
X6.3965Y-3.956
X6.3965Y-4.094
X6.4945Y-3.954
X6.4945Y-4.0739
X6.7425Y-3.894
X6.7465Y-4.154
X6.7465Y-4.384
T2
X5.4065Y-3.872
X5.5345Y-3.872
X5.6625Y-3.872
T3
X5.0965Y-4.534
X5.1965Y-4.534
X5.2965Y-4.534
X5.3965Y-4.534
X5.4965Y-3.734
X5.4965Y-4.534
X5.5965Y-3.734
X5.5965Y-4.534
X5.6965Y-3.734
X5.6965Y-4.534
X5.7965Y-3.734
X5.7965Y-4.534
X5.8965Y-3.734
X5.8965Y-4.534
X5.9965Y-3.734
X5.9965Y-4.534
X6.0965Y-3.734
X6.0965Y-4.534
X6.1965Y-3.734
X6.1965Y-4.534
X6.2965Y-3.734
X6.2965Y-4.534
X6.3965Y-3.734
X6.3965Y-4.534
X6.4965Y-3.734
X6.4965Y-4.534
X6.5965Y-3.734
X6.5965Y-4.534
T0
M30
