%TF.GenerationSoftware,KiCad,Pcbnew,(6.0.10-0)*%
%TF.CreationDate,2023-01-20T18:51:18-05:00*%
%TF.ProjectId,EyeSPI-Featherwing,45796553-5049-42d4-9665-617468657277,1.0.0*%
%TF.SameCoordinates,Original*%
%TF.FileFunction,Copper,L1,Top*%
%TF.FilePolarity,Positive*%
%FSLAX46Y46*%
G04 Gerber Fmt 4.6, Leading zero omitted, Abs format (unit mm)*
G04 Created by KiCad (PCBNEW (6.0.10-0)) date 2023-01-20 18:51:18*
%MOMM*%
%LPD*%
G01*
G04 APERTURE LIST*
G04 Aperture macros list*
%AMRoundRect*
0 Rectangle with rounded corners*
0 $1 Rounding radius*
0 $2 $3 $4 $5 $6 $7 $8 $9 X,Y pos of 4 corners*
0 Add a 4 corners polygon primitive as box body*
4,1,4,$2,$3,$4,$5,$6,$7,$8,$9,$2,$3,0*
0 Add four circle primitives for the rounded corners*
1,1,$1+$1,$2,$3*
1,1,$1+$1,$4,$5*
1,1,$1+$1,$6,$7*
1,1,$1+$1,$8,$9*
0 Add four rect primitives between the rounded corners*
20,1,$1+$1,$2,$3,$4,$5,0*
20,1,$1+$1,$4,$5,$6,$7,0*
20,1,$1+$1,$6,$7,$8,$9,0*
20,1,$1+$1,$8,$9,$2,$3,0*%
G04 Aperture macros list end*
%TA.AperFunction,SMDPad,CuDef*%
%ADD10R,1.500000X1.000000*%
%TD*%
%TA.AperFunction,SMDPad,CuDef*%
%ADD11RoundRect,0.237500X-0.287500X-0.237500X0.287500X-0.237500X0.287500X0.237500X-0.287500X0.237500X0*%
%TD*%
%TA.AperFunction,SMDPad,CuDef*%
%ADD12R,1.300000X0.300000*%
%TD*%
%TA.AperFunction,SMDPad,CuDef*%
%ADD13R,2.200000X1.800000*%
%TD*%
%TA.AperFunction,SMDPad,CuDef*%
%ADD14RoundRect,0.237500X0.250000X0.237500X-0.250000X0.237500X-0.250000X-0.237500X0.250000X-0.237500X0*%
%TD*%
%TA.AperFunction,ComponentPad*%
%ADD15RoundRect,0.250000X-0.675000X-0.675000X0.675000X-0.675000X0.675000X0.675000X-0.675000X0.675000X0*%
%TD*%
%TA.AperFunction,ComponentPad*%
%ADD16R,1.700000X1.700000*%
%TD*%
%TA.AperFunction,ComponentPad*%
%ADD17O,1.700000X1.700000*%
%TD*%
%TA.AperFunction,ViaPad*%
%ADD18C,3.200000*%
%TD*%
%TA.AperFunction,ViaPad*%
%ADD19C,0.800000*%
%TD*%
%TA.AperFunction,Conductor*%
%ADD20C,0.250000*%
%TD*%
G04 APERTURE END LIST*
%TO.C,JP108*%
G36*
X157691100Y-98573400D02*
G01*
X157091100Y-98573400D01*
X157091100Y-98073400D01*
X157691100Y-98073400D01*
X157691100Y-98573400D01*
G37*
%TO.C,JP102*%
G36*
X137396500Y-111908400D02*
G01*
X136796500Y-111908400D01*
X136796500Y-111408400D01*
X137396500Y-111408400D01*
X137396500Y-111908400D01*
G37*
%TO.C,JP107*%
G36*
X155176500Y-111883000D02*
G01*
X154576500Y-111883000D01*
X154576500Y-111383000D01*
X155176500Y-111383000D01*
X155176500Y-111883000D01*
G37*
%TO.C,JP104*%
G36*
X165311100Y-98598800D02*
G01*
X164711100Y-98598800D01*
X164711100Y-98098800D01*
X165311100Y-98098800D01*
X165311100Y-98598800D01*
G37*
%TO.C,JP109*%
G36*
X157691100Y-111883000D02*
G01*
X157091100Y-111883000D01*
X157091100Y-111383000D01*
X157691100Y-111383000D01*
X157691100Y-111883000D01*
G37*
%TO.C,JP105*%
G36*
X162771100Y-98598800D02*
G01*
X162171100Y-98598800D01*
X162171100Y-98098800D01*
X162771100Y-98098800D01*
X162771100Y-98598800D01*
G37*
%TO.C,JP110*%
G36*
X160231100Y-99883800D02*
G01*
X159631100Y-99883800D01*
X159631100Y-99383800D01*
X160231100Y-99383800D01*
X160231100Y-99883800D01*
G37*
%TO.C,JP101*%
G36*
X167851100Y-98598800D02*
G01*
X167251100Y-98598800D01*
X167251100Y-98098800D01*
X167851100Y-98098800D01*
X167851100Y-98598800D01*
G37*
%TD*%
D10*
%TO.P,JP108,1,A*%
%TO.N,/TFT_DC*%
X157391100Y-98973400D03*
%TO.P,JP108,2,B*%
%TO.N,/9*%
X157391100Y-97673400D03*
%TD*%
%TO.P,JP102,1,A*%
%TO.N,/LITE*%
X137096500Y-111008400D03*
%TO.P,JP102,2,B*%
%TO.N,+3V3*%
X137096500Y-112308400D03*
%TD*%
D11*
%TO.P,D101,1,K*%
%TO.N,GND*%
X130100100Y-94843600D03*
%TO.P,D101,2,A*%
%TO.N,Net-(D101-Pad2)*%
X131850100Y-94843600D03*
%TD*%
D10*
%TO.P,JP107,1,A*%
%TO.N,/EYESPI_SCK*%
X154876500Y-110983000D03*
%TO.P,JP107,2,B*%
%TO.N,/SCK*%
X154876500Y-112283000D03*
%TD*%
D12*
%TO.P,J106,1,VCC*%
%TO.N,+3V3*%
X134029100Y-100753600D03*
%TO.P,J106,2,BL*%
%TO.N,/LITE*%
X134029100Y-101253600D03*
%TO.P,J106,3,GND*%
%TO.N,GND*%
X134029100Y-101753600D03*
%TO.P,J106,4,SCK*%
%TO.N,/EYESPI_SCK*%
X134029100Y-102253600D03*
%TO.P,J106,5,MOSI*%
%TO.N,/EYESPI_MOSI*%
X134029100Y-102753600D03*
%TO.P,J106,6,MISO*%
%TO.N,/EYESPI_MISO*%
X134029100Y-103253600D03*
%TO.P,J106,7,DC*%
%TO.N,/TFT_DC*%
X134029100Y-103753600D03*
%TO.P,J106,8,~{RESET}*%
%TO.N,/~{TFT_RST}*%
X134029100Y-104253600D03*
%TO.P,J106,9,~{DISP_CS}*%
%TO.N,/~{TFT_CS}*%
X134029100Y-104753600D03*
%TO.P,J106,10,~{SD_CS}*%
%TO.N,/~{CARD_CS}*%
X134029100Y-105253600D03*
%TO.P,J106,11,~{MEM_CS}*%
%TO.N,/~{MEM_CS}*%
X134029100Y-105753600D03*
%TO.P,J106,12,~{TS_CS}*%
%TO.N,/~{TS_CS}*%
X134029100Y-106253600D03*
%TO.P,J106,13,SCL*%
%TO.N,/EYESPI_SCL*%
X134029100Y-106753600D03*
%TO.P,J106,14,SDA*%
%TO.N,/EYESPI_SDA*%
X134029100Y-107253600D03*
%TO.P,J106,15,INT*%
%TO.N,/INT*%
X134029100Y-107753600D03*
%TO.P,J106,16,BUSY/TE*%
%TO.N,/BUSY*%
X134029100Y-108253600D03*
%TO.P,J106,17,GPIO1*%
%TO.N,/GPIO1*%
X134029100Y-108753600D03*
%TO.P,J106,18,GPIO2*%
%TO.N,/GPIO2*%
X134029100Y-109253600D03*
D13*
%TO.P,J106,MP,MP*%
%TO.N,unconnected-(J106-PadMP)*%
X130779100Y-98853600D03*
X130779100Y-111153600D03*
%TD*%
D10*
%TO.P,JP104,1,A*%
%TO.N,/EYESPI_SCL*%
X165011100Y-98998800D03*
%TO.P,JP104,2,B*%
%TO.N,/SCL*%
X165011100Y-97698800D03*
%TD*%
%TO.P,JP109,1,A*%
%TO.N,/EYESPI_MOSI*%
X157391100Y-110983000D03*
%TO.P,JP109,2,B*%
%TO.N,/MOSI*%
X157391100Y-112283000D03*
%TD*%
%TO.P,JP106,1,A*%
%TO.N,/INT*%
X149771100Y-98973400D03*
%TO.P,JP106,2,B*%
%TO.N,/12*%
X149771100Y-97673400D03*
%TD*%
%TO.P,JP103,1,A*%
%TO.N,/~{TS_CS}*%
X152311100Y-98973400D03*
%TO.P,JP103,2,B*%
%TO.N,/11*%
X152311100Y-97673400D03*
%TD*%
%TO.P,JP105,1,A*%
%TO.N,/~{TFT_CS}*%
X162471100Y-98998800D03*
%TO.P,JP105,2,B*%
%TO.N,/5*%
X162471100Y-97698800D03*
%TD*%
%TO.P,JP113,1,A*%
%TO.N,/BUSY*%
X147231100Y-98973400D03*
%TO.P,JP113,2,B*%
%TO.N,/13*%
X147231100Y-97673400D03*
%TD*%
%TO.P,JP111,1,A*%
%TO.N,/EYESPI_MISO*%
X159931100Y-110983000D03*
%TO.P,JP111,2,B*%
%TO.N,/MISO*%
X159931100Y-112283000D03*
%TD*%
%TO.P,JP110,1,A*%
%TO.N,/~{RST}*%
X159931100Y-100283800D03*
%TO.P,JP110,2,C*%
%TO.N,/~{TFT_RST}*%
X159931100Y-98983800D03*
%TO.P,JP110,3,B*%
%TO.N,/6*%
X159931100Y-97683800D03*
%TD*%
%TO.P,JP101,1,A*%
%TO.N,/EYESPI_SDA*%
X167551100Y-98998800D03*
%TO.P,JP101,2,B*%
%TO.N,/SDA*%
X167551100Y-97698800D03*
%TD*%
D14*
%TO.P,R101,1*%
%TO.N,+3V3*%
X135672200Y-94843600D03*
%TO.P,R101,2*%
%TO.N,Net-(D101-Pad2)*%
X133847200Y-94843600D03*
%TD*%
D15*
%TO.P,J108,1,Pin_1*%
%TO.N,/GPIO2*%
X142176500Y-109308343D03*
%TD*%
D10*
%TO.P,JP112,1,A*%
%TO.N,/~{CARD_CS}*%
X154851100Y-98973400D03*
%TO.P,JP112,2,B*%
%TO.N,/10*%
X154851100Y-97673400D03*
%TD*%
D15*
%TO.P,J109,1,Pin_1*%
%TO.N,/~{MEM_CS}*%
X149745700Y-109308343D03*
%TD*%
%TO.P,J107,1,Pin_1*%
%TO.N,/GPIO1*%
X145961100Y-109308343D03*
%TD*%
D16*
%TO.P,J102,1,Pin_1*%
%TO.N,/VBAT*%
X139611100Y-94843600D03*
D17*
%TO.P,J102,2,Pin_2*%
%TO.N,/EN*%
X142151100Y-94843600D03*
%TO.P,J102,3,Pin_3*%
%TO.N,/VBUS*%
X144691100Y-94843600D03*
%TO.P,J102,4,Pin_4*%
%TO.N,/13*%
X147231100Y-94843600D03*
%TO.P,J102,5,Pin_5*%
%TO.N,/12*%
X149771100Y-94843600D03*
%TO.P,J102,6,Pin_6*%
%TO.N,/11*%
X152311100Y-94843600D03*
%TO.P,J102,7,Pin_7*%
%TO.N,/10*%
X154851100Y-94843600D03*
%TO.P,J102,8,Pin_8*%
%TO.N,/9*%
X157391100Y-94843600D03*
%TO.P,J102,9,Pin_9*%
%TO.N,/6*%
X159931100Y-94843600D03*
%TO.P,J102,10,Pin_10*%
%TO.N,/5*%
X162471100Y-94843600D03*
%TO.P,J102,11,Pin_11*%
%TO.N,/SCL*%
X165011100Y-94843600D03*
%TO.P,J102,12,Pin_12*%
%TO.N,/SDA*%
X167551100Y-94843600D03*
%TD*%
D16*
%TO.P,J101,1,Pin_1*%
%TO.N,/~{RST}*%
X129451100Y-115163600D03*
D17*
%TO.P,J101,2,Pin_2*%
%TO.N,+3V3*%
X131991100Y-115163600D03*
%TO.P,J101,3,Pin_3*%
%TO.N,/AREF*%
X134531100Y-115163600D03*
%TO.P,J101,4,Pin_4*%
%TO.N,GND*%
X137071100Y-115163600D03*
%TO.P,J101,5,Pin_5*%
%TO.N,/A0*%
X139611100Y-115163600D03*
%TO.P,J101,6,Pin_6*%
%TO.N,/A1*%
X142151100Y-115163600D03*
%TO.P,J101,7,Pin_7*%
%TO.N,/A2*%
X144691100Y-115163600D03*
%TO.P,J101,8,Pin_8*%
%TO.N,/A3*%
X147231100Y-115163600D03*
%TO.P,J101,9,Pin_9*%
%TO.N,/A4*%
X149771100Y-115163600D03*
%TO.P,J101,10,Pin_10*%
%TO.N,/A5*%
X152311100Y-115163600D03*
%TO.P,J101,11,Pin_11*%
%TO.N,/SCK*%
X154851100Y-115163600D03*
%TO.P,J101,12,Pin_12*%
%TO.N,/MOSI*%
X157391100Y-115163600D03*
%TO.P,J101,13,Pin_13*%
%TO.N,/MISO*%
X159931100Y-115163600D03*
%TO.P,J101,14,Pin_14*%
%TO.N,/0 RX*%
X162471100Y-115163600D03*
%TO.P,J101,15,Pin_15*%
%TO.N,/1 TX*%
X165011100Y-115163600D03*
%TO.P,J101,16,Pin_16*%
%TO.N,GND*%
X167551100Y-115163600D03*
%TD*%
D18*
%TO.N,*%
X171361100Y-113893600D03*
X171361100Y-96113600D03*
X125730000Y-113893600D03*
X125641100Y-96113600D03*
D19*
%TO.N,GND*%
X135826500Y-101752400D03*
X128333500Y-94843600D03*
%TO.N,/~{RST}*%
X159931100Y-107010200D03*
X159931100Y-101879400D03*
%TO.N,/EYESPI_SCK*%
X131203700Y-102311200D03*
X154876500Y-109524800D03*
%TO.N,/EYESPI_MOSI*%
X131203700Y-103352600D03*
X157365700Y-109524800D03*
%TO.N,/EYESPI_MISO*%
X131203700Y-104444800D03*
X159931100Y-109550200D03*
%TO.N,/TFT_DC*%
X157391100Y-100406200D03*
X139941300Y-100914200D03*
%TO.N,/~{TFT_RST}*%
X146506600Y-101193600D03*
X156121100Y-101168200D03*
%TO.N,/~{TFT_CS}*%
X156146500Y-102895400D03*
X146506600Y-102235000D03*
%TO.N,/~{CARD_CS}*%
X154876500Y-103022400D03*
X145859500Y-103047800D03*
%TO.N,/~{MEM_CS}*%
X132397500Y-105765600D03*
%TO.N,/EYESPI_SCL*%
X145097500Y-105333800D03*
X150736300Y-105333800D03*
%TO.N,/EYESPI_SDA*%
X147993100Y-106121200D03*
X142074900Y-106324400D03*
%TO.N,/INT*%
X143230183Y-106871700D03*
X146050000Y-106921300D03*
%TO.N,/~{TS_CS}*%
X145935700Y-104140000D03*
X152311100Y-104114600D03*
%TO.N,+3V3*%
X133642100Y-112318800D03*
%TD*%
D20*
%TO.N,GND*%
X135825300Y-101753600D02*
X135826500Y-101752400D01*
X130100100Y-94843600D02*
X128333500Y-94843600D01*
X134029100Y-101753600D02*
X135825300Y-101753600D01*
%TO.N,/MISO*%
X159931100Y-112333800D02*
X159931100Y-115163600D01*
%TO.N,/MOSI*%
X157391100Y-112333800D02*
X157391100Y-115163600D01*
%TO.N,/SCK*%
X154851100Y-112308400D02*
X154851100Y-115163600D01*
%TO.N,/~{RST}*%
X159931100Y-101879400D02*
X159931100Y-100309200D01*
X159931100Y-107010200D02*
X155740100Y-107010200D01*
X140129100Y-113792000D02*
X130822700Y-113792000D01*
X149771100Y-112979200D02*
X140941900Y-112979200D01*
X130822700Y-113792000D02*
X129451100Y-115163600D01*
X140941900Y-112979200D02*
X140129100Y-113792000D01*
X155740100Y-107010200D02*
X149771100Y-112979200D01*
%TO.N,Net-(D101-Pad2)*%
X131850100Y-94843600D02*
X133847200Y-94843600D01*
%TO.N,/13*%
X147231100Y-94843600D02*
X147231100Y-97698800D01*
%TO.N,/12*%
X149771100Y-94843600D02*
X149771100Y-97698800D01*
%TO.N,/11*%
X152311100Y-94843600D02*
X152311100Y-97698800D01*
%TO.N,/10*%
X154851100Y-94843600D02*
X154851100Y-97698800D01*
%TO.N,/9*%
X157391100Y-94843600D02*
X157391100Y-97698800D01*
%TO.N,/6*%
X159931100Y-94843600D02*
X159931100Y-97683800D01*
%TO.N,/5*%
X162471100Y-94843600D02*
X162471100Y-97698800D01*
%TO.N,/SCL*%
X165011100Y-94843600D02*
X165011100Y-97698800D01*
%TO.N,/SDA*%
X167551100Y-94843600D02*
X167551100Y-97698800D01*
%TO.N,/LITE*%
X137071100Y-111008400D02*
X133144500Y-111008400D01*
X133144500Y-111008400D02*
X129933700Y-107797600D01*
X129933700Y-107797600D02*
X129933700Y-102235000D01*
X130915100Y-101253600D02*
X134029100Y-101253600D01*
X129933700Y-102235000D02*
X130915100Y-101253600D01*
%TO.N,/EYESPI_SCK*%
X131261300Y-102253600D02*
X131203700Y-102311200D01*
X154851100Y-111008400D02*
X154851100Y-109550200D01*
X154851100Y-109550200D02*
X154876500Y-109524800D01*
X134029100Y-102253600D02*
X131261300Y-102253600D01*
%TO.N,/EYESPI_MOSI*%
X157391100Y-111033800D02*
X157391100Y-109550200D01*
X131802700Y-102753600D02*
X131203700Y-103352600D01*
X134029100Y-102753600D02*
X131802700Y-102753600D01*
X157391100Y-109550200D02*
X157365700Y-109524800D01*
%TO.N,/EYESPI_MISO*%
X132394900Y-103253600D02*
X131203700Y-104444800D01*
X159931100Y-109550200D02*
X159931100Y-111033800D01*
X134029100Y-103253600D02*
X132394900Y-103253600D01*
%TO.N,/TFT_DC*%
X134029100Y-103753600D02*
X137101900Y-103753600D01*
X157391100Y-100406200D02*
X157391100Y-98998800D01*
X137101900Y-103753600D02*
X139941300Y-100914200D01*
%TO.N,/~{TFT_RST}*%
X158559500Y-100634800D02*
X158026100Y-101168200D01*
X158026100Y-101168200D02*
X156121100Y-101168200D01*
X159931100Y-98983800D02*
X159245300Y-98983800D01*
X159245300Y-98983800D02*
X158559500Y-99669600D01*
X137973500Y-104253600D02*
X134029100Y-104253600D01*
X141033500Y-101193600D02*
X137973500Y-104253600D01*
X158559500Y-99669600D02*
X158559500Y-100634800D01*
X146506600Y-101193600D02*
X141033500Y-101193600D01*
%TO.N,/~{TFT_CS}*%
X160388300Y-103200200D02*
X162471100Y-101117400D01*
X162471100Y-101117400D02*
X162471100Y-98998800D01*
X138665904Y-104753600D02*
X134029100Y-104753600D01*
X156146500Y-102895400D02*
X156451300Y-103200200D01*
X146506600Y-102235000D02*
X141184504Y-102235000D01*
X141184504Y-102235000D02*
X138665904Y-104753600D01*
X156451300Y-103200200D02*
X160388300Y-103200200D01*
%TO.N,/~{CARD_CS}*%
X138802300Y-105253600D02*
X134029100Y-105253600D01*
X154851100Y-102997000D02*
X154851100Y-98998800D01*
X145859500Y-103047800D02*
X141008100Y-103047800D01*
X141008100Y-103047800D02*
X138802300Y-105253600D01*
X154876500Y-103022400D02*
X154851100Y-102997000D01*
%TO.N,/~{MEM_CS}*%
X132409500Y-105753600D02*
X132397500Y-105765600D01*
X134029100Y-105753600D02*
X132409500Y-105753600D01*
%TO.N,/EYESPI_SCL*%
X139181900Y-106753600D02*
X134029100Y-106753600D01*
X145097500Y-105333800D02*
X140601700Y-105333800D01*
X140601700Y-105333800D02*
X139181900Y-106753600D01*
X165011100Y-102895400D02*
X165011100Y-98998800D01*
X162572700Y-105333800D02*
X165011100Y-102895400D01*
X150736300Y-105333800D02*
X162572700Y-105333800D01*
%TO.N,/EYESPI_SDA*%
X139647100Y-107253600D02*
X140627100Y-106273600D01*
X147993100Y-106121200D02*
X163563300Y-106121200D01*
X142024100Y-106273600D02*
X142074900Y-106324400D01*
X134029100Y-107253600D02*
X139647100Y-107253600D01*
X163563300Y-106121200D02*
X167551100Y-102133400D01*
X167551100Y-102133400D02*
X167551100Y-98998800D01*
X140627100Y-106273600D02*
X142024100Y-106273600D01*
%TO.N,/INT*%
X142955683Y-107146200D02*
X140865135Y-107146200D01*
X143230183Y-106871700D02*
X142955683Y-107146200D01*
X140865135Y-107146200D02*
X140257735Y-107753600D01*
X140257735Y-107753600D02*
X134029100Y-107753600D01*
X146050000Y-106921300D02*
X149771100Y-103200200D01*
X149771100Y-103200200D02*
X149771100Y-98998800D01*
%TO.N,/BUSY*%
X134029100Y-108253600D02*
X140394131Y-108253600D01*
X147231100Y-104317800D02*
X147231100Y-98998800D01*
X143952700Y-107596200D02*
X147231100Y-104317800D01*
X140394131Y-108253600D02*
X141051531Y-107596200D01*
X141051531Y-107596200D02*
X143952700Y-107596200D01*
%TO.N,/~{TS_CS}*%
X152311100Y-104114600D02*
X152311100Y-98998800D01*
X141159104Y-104140000D02*
X139045504Y-106253600D01*
X139045504Y-106253600D02*
X134029100Y-106253600D01*
X145935700Y-104140000D02*
X141159104Y-104140000D01*
%TO.N,/GPIO1*%
X144685700Y-108046200D02*
X141237927Y-108046200D01*
X140530527Y-108753600D02*
X134029100Y-108753600D01*
X141237927Y-108046200D02*
X140530527Y-108753600D01*
X145961100Y-109321600D02*
X144685700Y-108046200D01*
%TO.N,/GPIO2*%
X142108500Y-109253600D02*
X134029100Y-109253600D01*
X142151100Y-109296200D02*
X142108500Y-109253600D01*
%TO.N,+3V3*%
X133652500Y-112308400D02*
X133642100Y-112318800D01*
X137071100Y-112308400D02*
X133652500Y-112308400D01*
X134029100Y-100753600D02*
X134029100Y-96486700D01*
X134029100Y-96486700D02*
X135672200Y-94843600D01*
%TO.N,unconnected-(J106-PadMP)*%
X130779100Y-98853600D02*
X130038500Y-98853600D01*
X128968500Y-109343000D02*
X130779100Y-111153600D01*
X128968500Y-99923600D02*
X128968500Y-109343000D01*
X130038500Y-98853600D02*
X128968500Y-99923600D01*
%TD*%
%TA.AperFunction,Conductor*%
%TO.N,+3V3*%
G36*
X138194721Y-94102102D02*
G01*
X138241214Y-94155758D01*
X138252600Y-94208100D01*
X138252600Y-95741734D01*
X138259355Y-95803916D01*
X138310485Y-95940305D01*
X138397839Y-96056861D01*
X138514395Y-96144215D01*
X138650784Y-96195345D01*
X138712966Y-96202100D01*
X140509234Y-96202100D01*
X140571416Y-96195345D01*
X140707805Y-96144215D01*
X140824361Y-96056861D01*
X140911715Y-95940305D01*
X140933899Y-95881129D01*
X140955698Y-95822982D01*
X140998340Y-95766218D01*
X141064902Y-95741518D01*
X141134250Y-95756726D01*
X141168917Y-95784714D01*
X141197350Y-95817538D01*
X141369226Y-95960232D01*
X141562100Y-96072938D01*
X141770792Y-96152630D01*
X141775860Y-96153661D01*
X141775863Y-96153662D01*
X141883117Y-96175483D01*
X141989697Y-96197167D01*
X141994872Y-96197357D01*
X141994874Y-96197357D01*
X142207773Y-96205164D01*
X142207777Y-96205164D01*
X142212937Y-96205353D01*
X142218057Y-96204697D01*
X142218059Y-96204697D01*
X142429388Y-96177625D01*
X142429389Y-96177625D01*
X142434516Y-96176968D01*
X142439466Y-96175483D01*
X142643529Y-96114261D01*
X142643534Y-96114259D01*
X142648484Y-96112774D01*
X142849094Y-96014496D01*
X143030960Y-95884773D01*
X143091014Y-95824929D01*
X143174716Y-95741518D01*
X143189196Y-95727089D01*
X143198770Y-95713766D01*
X143319553Y-95545677D01*
X143320876Y-95546628D01*
X143367745Y-95503457D01*
X143437680Y-95491225D01*
X143503126Y-95518744D01*
X143530975Y-95550594D01*
X143531704Y-95551784D01*
X143591087Y-95648688D01*
X143737350Y-95817538D01*
X143909226Y-95960232D01*
X144102100Y-96072938D01*
X144310792Y-96152630D01*
X144315860Y-96153661D01*
X144315863Y-96153662D01*
X144423117Y-96175483D01*
X144529697Y-96197167D01*
X144534872Y-96197357D01*
X144534874Y-96197357D01*
X144747773Y-96205164D01*
X144747777Y-96205164D01*
X144752937Y-96205353D01*
X144758057Y-96204697D01*
X144758059Y-96204697D01*
X144969388Y-96177625D01*
X144969389Y-96177625D01*
X144974516Y-96176968D01*
X144979466Y-96175483D01*
X145183529Y-96114261D01*
X145183534Y-96114259D01*
X145188484Y-96112774D01*
X145389094Y-96014496D01*
X145570960Y-95884773D01*
X145631014Y-95824929D01*
X145714716Y-95741518D01*
X145729196Y-95727089D01*
X145738770Y-95713766D01*
X145859553Y-95545677D01*
X145860876Y-95546628D01*
X145907745Y-95503457D01*
X145977680Y-95491225D01*
X146043126Y-95518744D01*
X146070975Y-95550594D01*
X146071704Y-95551784D01*
X146131087Y-95648688D01*
X146277350Y-95817538D01*
X146449226Y-95960232D01*
X146453693Y-95962842D01*
X146535170Y-96010453D01*
X146583894Y-96062091D01*
X146597600Y-96119241D01*
X146597600Y-96538900D01*
X146577598Y-96607021D01*
X146523942Y-96653514D01*
X146471600Y-96664900D01*
X146432966Y-96664900D01*
X146370784Y-96671655D01*
X146234395Y-96722785D01*
X146117839Y-96810139D01*
X146030485Y-96926695D01*
X145979355Y-97063084D01*
X145972600Y-97125266D01*
X145972600Y-98221534D01*
X145979355Y-98283716D01*
X145982129Y-98291115D01*
X145982875Y-98294254D01*
X145982875Y-98352546D01*
X145982129Y-98355685D01*
X145979355Y-98363084D01*
X145972600Y-98425266D01*
X145972600Y-99521534D01*
X145979355Y-99583716D01*
X146030485Y-99720105D01*
X146117839Y-99836661D01*
X146234395Y-99924015D01*
X146370784Y-99975145D01*
X146432966Y-99981900D01*
X146471600Y-99981900D01*
X146539721Y-100001902D01*
X146586214Y-100055558D01*
X146597600Y-100107900D01*
X146597600Y-100159100D01*
X146577598Y-100227221D01*
X146523942Y-100273714D01*
X146471600Y-100285100D01*
X146411113Y-100285100D01*
X146404661Y-100286472D01*
X146404656Y-100286472D01*
X146331177Y-100302091D01*
X146224312Y-100324806D01*
X146218282Y-100327491D01*
X146218281Y-100327491D01*
X146055878Y-100399797D01*
X146055876Y-100399798D01*
X146049848Y-100402482D01*
X146044507Y-100406362D01*
X146044506Y-100406363D01*
X145934904Y-100485994D01*
X145895347Y-100514734D01*
X145890932Y-100519637D01*
X145886020Y-100524060D01*
X145884895Y-100522811D01*
X145831586Y-100555651D01*
X145798400Y-100560100D01*
X141112268Y-100560100D01*
X141101085Y-100559573D01*
X141093592Y-100557898D01*
X141085666Y-100558147D01*
X141085665Y-100558147D01*
X141025502Y-100560038D01*
X141021544Y-100560100D01*
X140993644Y-100560100D01*
X140989654Y-100560604D01*
X140977820Y-100561536D01*
X140933611Y-100562926D01*
X140925995Y-100565139D01*
X140925993Y-100565139D01*
X140914152Y-100568579D01*
X140894805Y-100572587D01*
X140883083Y-100574067D01*
X140812996Y-100562764D01*
X140758170Y-100512062D01*
X140757474Y-100510855D01*
X140680340Y-100377256D01*
X140655755Y-100349951D01*
X140556975Y-100240245D01*
X140556974Y-100240244D01*
X140552553Y-100235334D01*
X140398052Y-100123082D01*
X140392024Y-100120398D01*
X140392022Y-100120397D01*
X140229619Y-100048091D01*
X140229618Y-100048091D01*
X140223588Y-100045406D01*
X140130187Y-100025553D01*
X140043244Y-100007072D01*
X140043239Y-100007072D01*
X140036787Y-100005700D01*
X139845813Y-100005700D01*
X139839361Y-100007072D01*
X139839356Y-100007072D01*
X139752413Y-100025553D01*
X139659012Y-100045406D01*
X139652982Y-100048091D01*
X139652981Y-100048091D01*
X139490578Y-100120397D01*
X139490576Y-100120398D01*
X139484548Y-100123082D01*
X139330047Y-100235334D01*
X139325626Y-100240244D01*
X139325625Y-100240245D01*
X139226846Y-100349951D01*
X139202260Y-100377256D01*
X139189246Y-100399797D01*
X139118224Y-100522811D01*
X139106773Y-100542644D01*
X139047758Y-100724272D01*
X139047068Y-100730833D01*
X139047068Y-100730835D01*
X139040404Y-100794237D01*
X139030730Y-100886291D01*
X139030393Y-100889493D01*
X139003380Y-100955150D01*
X138994178Y-100965418D01*
X136876400Y-103083195D01*
X136814088Y-103117221D01*
X136787305Y-103120100D01*
X135309739Y-103120100D01*
X135241618Y-103100098D01*
X135195125Y-103046442D01*
X135184476Y-102980493D01*
X135187231Y-102955133D01*
X135187231Y-102955129D01*
X135187600Y-102951734D01*
X135187600Y-102655796D01*
X135207602Y-102587675D01*
X135261258Y-102541182D01*
X135331532Y-102531078D01*
X135369444Y-102544202D01*
X135369748Y-102543518D01*
X135544212Y-102621194D01*
X135618818Y-102637052D01*
X135724556Y-102659528D01*
X135724561Y-102659528D01*
X135731013Y-102660900D01*
X135921987Y-102660900D01*
X135928439Y-102659528D01*
X135928444Y-102659528D01*
X136034182Y-102637052D01*
X136108788Y-102621194D01*
X136114819Y-102618509D01*
X136277222Y-102546203D01*
X136277224Y-102546202D01*
X136283252Y-102543518D01*
X136437753Y-102431266D01*
X136507731Y-102353548D01*
X136561121Y-102294252D01*
X136561122Y-102294251D01*
X136565540Y-102289344D01*
X136632443Y-102173465D01*
X136657723Y-102129679D01*
X136657724Y-102129678D01*
X136661027Y-102123956D01*
X136720042Y-101942328D01*
X136723661Y-101907901D01*
X136739314Y-101758965D01*
X136740004Y-101752400D01*
X136720042Y-101562472D01*
X136661027Y-101380844D01*
X136644640Y-101352460D01*
X136606006Y-101285545D01*
X136565540Y-101215456D01*
X136556226Y-101205111D01*
X136442175Y-101078445D01*
X136442174Y-101078444D01*
X136437753Y-101073534D01*
X136283252Y-100961282D01*
X136277224Y-100958598D01*
X136277222Y-100958597D01*
X136114819Y-100886291D01*
X136114818Y-100886291D01*
X136108788Y-100883606D01*
X136015388Y-100863753D01*
X135928444Y-100845272D01*
X135928439Y-100845272D01*
X135921987Y-100843900D01*
X135731013Y-100843900D01*
X135724561Y-100845272D01*
X135724556Y-100845272D01*
X135637612Y-100863753D01*
X135544212Y-100883606D01*
X135538182Y-100886291D01*
X135538181Y-100886291D01*
X135481738Y-100911421D01*
X135369748Y-100961282D01*
X135364408Y-100965161D01*
X135362464Y-100966284D01*
X135293468Y-100983021D01*
X135226377Y-100959800D01*
X135188332Y-100911421D01*
X135156930Y-100884211D01*
X135157388Y-100883682D01*
X135145000Y-100876918D01*
X135129893Y-100856761D01*
X135129715Y-100856895D01*
X135111008Y-100831934D01*
X135090103Y-100804041D01*
X135065255Y-100737535D01*
X135080308Y-100668152D01*
X135130482Y-100617922D01*
X135155430Y-100607580D01*
X135184223Y-100599125D01*
X135185428Y-100597735D01*
X135187099Y-100590052D01*
X135187099Y-100558931D01*
X135186729Y-100552110D01*
X135181205Y-100501248D01*
X135177579Y-100485996D01*
X135132424Y-100365546D01*
X135123886Y-100349951D01*
X135047385Y-100247876D01*
X135034824Y-100235315D01*
X134932749Y-100158814D01*
X134917154Y-100150276D01*
X134796706Y-100105122D01*
X134781451Y-100101495D01*
X134730586Y-100095969D01*
X134723772Y-100095600D01*
X134197215Y-100095600D01*
X134181976Y-100100075D01*
X134180771Y-100101465D01*
X134179100Y-100109148D01*
X134179100Y-100469100D01*
X134159098Y-100537221D01*
X134105442Y-100583714D01*
X134053100Y-100595100D01*
X134005100Y-100595100D01*
X133936979Y-100575098D01*
X133890486Y-100521442D01*
X133879100Y-100469100D01*
X133879100Y-100113716D01*
X133874625Y-100098477D01*
X133873235Y-100097272D01*
X133865552Y-100095601D01*
X133334431Y-100095601D01*
X133327610Y-100095971D01*
X133276748Y-100101495D01*
X133261496Y-100105121D01*
X133141046Y-100150276D01*
X133125451Y-100158814D01*
X133023376Y-100235315D01*
X133010815Y-100247876D01*
X132934314Y-100349951D01*
X132925776Y-100365546D01*
X132880622Y-100485994D01*
X132876994Y-100501249D01*
X132876293Y-100507707D01*
X132849052Y-100573269D01*
X132790689Y-100613696D01*
X132751030Y-100620100D01*
X130993867Y-100620100D01*
X130982684Y-100619573D01*
X130975191Y-100617898D01*
X130967265Y-100618147D01*
X130967264Y-100618147D01*
X130907114Y-100620038D01*
X130903155Y-100620100D01*
X130875244Y-100620100D01*
X130871310Y-100620597D01*
X130871309Y-100620597D01*
X130871244Y-100620605D01*
X130859407Y-100621538D01*
X130827590Y-100622538D01*
X130823129Y-100622678D01*
X130815210Y-100622927D01*
X130797554Y-100628056D01*
X130795758Y-100628578D01*
X130776406Y-100632586D01*
X130769335Y-100633480D01*
X130756303Y-100635126D01*
X130748934Y-100638043D01*
X130748932Y-100638044D01*
X130715197Y-100651400D01*
X130703969Y-100655245D01*
X130661507Y-100667582D01*
X130654685Y-100671616D01*
X130654679Y-100671619D01*
X130644068Y-100677894D01*
X130626318Y-100686590D01*
X130614856Y-100691128D01*
X130614851Y-100691131D01*
X130607483Y-100694048D01*
X130601068Y-100698709D01*
X130571725Y-100720027D01*
X130561807Y-100726543D01*
X130554550Y-100730835D01*
X130523737Y-100749058D01*
X130509413Y-100763382D01*
X130494381Y-100776221D01*
X130477993Y-100788128D01*
X130464829Y-100804041D01*
X130449812Y-100822193D01*
X130441822Y-100830973D01*
X129817095Y-101455700D01*
X129754783Y-101489726D01*
X129683968Y-101484661D01*
X129627132Y-101442114D01*
X129602321Y-101375594D01*
X129602000Y-101366605D01*
X129602000Y-100388100D01*
X129622002Y-100319979D01*
X129675658Y-100273486D01*
X129728000Y-100262100D01*
X131927234Y-100262100D01*
X131989416Y-100255345D01*
X132125805Y-100204215D01*
X132242361Y-100116861D01*
X132329715Y-100000305D01*
X132380845Y-99863916D01*
X132387600Y-99801734D01*
X132387600Y-97905466D01*
X132380845Y-97843284D01*
X132329715Y-97706895D01*
X132242361Y-97590339D01*
X132125805Y-97502985D01*
X131989416Y-97451855D01*
X131927234Y-97445100D01*
X129630966Y-97445100D01*
X129568784Y-97451855D01*
X129432395Y-97502985D01*
X129315839Y-97590339D01*
X129228485Y-97706895D01*
X129177355Y-97843284D01*
X129170600Y-97905466D01*
X129170600Y-98773405D01*
X129150598Y-98841526D01*
X129133695Y-98862501D01*
X128576242Y-99419953D01*
X128567963Y-99427487D01*
X128561482Y-99431600D01*
X128514857Y-99481251D01*
X128512102Y-99484093D01*
X128492365Y-99503830D01*
X128489885Y-99507027D01*
X128482182Y-99516047D01*
X128451914Y-99548279D01*
X128448095Y-99555225D01*
X128448093Y-99555228D01*
X128442152Y-99566034D01*
X128431301Y-99582553D01*
X128418886Y-99598559D01*
X128415741Y-99605828D01*
X128415738Y-99605832D01*
X128401326Y-99639137D01*
X128396109Y-99649787D01*
X128374805Y-99688540D01*
X128372834Y-99696215D01*
X128372834Y-99696216D01*
X128369767Y-99708162D01*
X128363363Y-99726866D01*
X128355319Y-99745455D01*
X128354080Y-99753278D01*
X128354077Y-99753288D01*
X128348401Y-99789124D01*
X128345995Y-99800744D01*
X128338617Y-99829481D01*
X128335000Y-99843570D01*
X128335000Y-99863824D01*
X128333449Y-99883534D01*
X128330280Y-99903543D01*
X128331026Y-99911435D01*
X128334441Y-99947561D01*
X128335000Y-99959419D01*
X128335000Y-109264233D01*
X128334473Y-109275416D01*
X128332798Y-109282909D01*
X128333047Y-109290835D01*
X128333047Y-109290836D01*
X128334938Y-109350986D01*
X128335000Y-109354945D01*
X128335000Y-109382856D01*
X128335497Y-109386790D01*
X128335497Y-109386791D01*
X128335505Y-109386856D01*
X128336438Y-109398693D01*
X128337827Y-109442889D01*
X128340397Y-109451734D01*
X128343478Y-109462339D01*
X128347487Y-109481700D01*
X128350026Y-109501797D01*
X128352945Y-109509168D01*
X128352945Y-109509170D01*
X128366304Y-109542912D01*
X128370149Y-109554142D01*
X128382482Y-109596593D01*
X128386515Y-109603412D01*
X128386517Y-109603417D01*
X128392793Y-109614028D01*
X128401488Y-109631776D01*
X128408948Y-109650617D01*
X128413610Y-109657033D01*
X128413610Y-109657034D01*
X128434936Y-109686387D01*
X128441452Y-109696307D01*
X128448483Y-109708195D01*
X128463958Y-109734362D01*
X128478279Y-109748683D01*
X128491119Y-109763716D01*
X128503028Y-109780107D01*
X128509134Y-109785158D01*
X128537105Y-109808298D01*
X128545884Y-109816288D01*
X129133695Y-110404099D01*
X129167721Y-110466411D01*
X129170600Y-110493194D01*
X129170600Y-112101734D01*
X129177355Y-112163916D01*
X129228485Y-112300305D01*
X129315839Y-112416861D01*
X129432395Y-112504215D01*
X129568784Y-112555345D01*
X129630966Y-112562100D01*
X131927234Y-112562100D01*
X131989416Y-112555345D01*
X132125805Y-112504215D01*
X132242361Y-112416861D01*
X132329715Y-112300305D01*
X132380845Y-112163916D01*
X132387600Y-112101734D01*
X132387600Y-111451595D01*
X132407602Y-111383474D01*
X132461258Y-111336981D01*
X132531532Y-111326877D01*
X132596112Y-111356371D01*
X132602695Y-111362500D01*
X132640848Y-111400653D01*
X132648388Y-111408939D01*
X132652500Y-111415418D01*
X132658277Y-111420843D01*
X132702151Y-111462043D01*
X132704993Y-111464798D01*
X132724730Y-111484535D01*
X132727927Y-111487015D01*
X132736947Y-111494718D01*
X132769179Y-111524986D01*
X132776125Y-111528805D01*
X132776128Y-111528807D01*
X132786934Y-111534748D01*
X132803453Y-111545599D01*
X132819459Y-111558014D01*
X132826728Y-111561159D01*
X132826732Y-111561162D01*
X132860037Y-111575574D01*
X132870687Y-111580791D01*
X132909440Y-111602095D01*
X132917115Y-111604066D01*
X132917116Y-111604066D01*
X132929062Y-111607133D01*
X132947767Y-111613537D01*
X132966355Y-111621581D01*
X132974178Y-111622820D01*
X132974188Y-111622823D01*
X133010024Y-111628499D01*
X133021644Y-111630905D01*
X133056789Y-111639928D01*
X133064470Y-111641900D01*
X133084724Y-111641900D01*
X133104434Y-111643451D01*
X133124443Y-111646620D01*
X133132335Y-111645874D01*
X133168461Y-111642459D01*
X133180319Y-111641900D01*
X135712500Y-111641900D01*
X135780621Y-111661902D01*
X135827114Y-111715558D01*
X135838500Y-111767900D01*
X135838500Y-112036285D01*
X135842975Y-112051524D01*
X135844365Y-112052729D01*
X135852048Y-112054400D01*
X138336384Y-112054400D01*
X138351623Y-112049925D01*
X138352828Y-112048535D01*
X138354499Y-112040852D01*
X138354499Y-111763731D01*
X138354129Y-111756910D01*
X138348605Y-111706051D01*
X138344465Y-111688636D01*
X138344466Y-111630342D01*
X138345471Y-111626116D01*
X138348245Y-111618716D01*
X138355000Y-111556534D01*
X138355000Y-110460266D01*
X138348245Y-110398084D01*
X138297115Y-110261695D01*
X138209761Y-110145139D01*
X138168112Y-110113925D01*
X138125599Y-110057066D01*
X138120574Y-109986248D01*
X138154634Y-109923955D01*
X138216965Y-109889964D01*
X138243679Y-109887100D01*
X140617000Y-109887100D01*
X140685121Y-109907102D01*
X140731614Y-109960758D01*
X140743000Y-110013100D01*
X140743000Y-110033743D01*
X140743337Y-110036989D01*
X140743337Y-110036993D01*
X140752668Y-110126920D01*
X140753974Y-110139509D01*
X140756155Y-110146045D01*
X140756155Y-110146047D01*
X140782476Y-110224939D01*
X140809950Y-110307289D01*
X140903022Y-110457691D01*
X141028197Y-110582648D01*
X141034427Y-110586488D01*
X141034428Y-110586489D01*
X141171590Y-110671037D01*
X141178762Y-110675458D01*
X141258505Y-110701907D01*
X141340111Y-110728975D01*
X141340113Y-110728975D01*
X141346639Y-110731140D01*
X141353475Y-110731840D01*
X141353478Y-110731841D01*
X141396531Y-110736252D01*
X141451100Y-110741843D01*
X142901900Y-110741843D01*
X142905146Y-110741506D01*
X142905150Y-110741506D01*
X143000808Y-110731581D01*
X143000812Y-110731580D01*
X143007666Y-110730869D01*
X143014202Y-110728688D01*
X143014204Y-110728688D01*
X143146306Y-110684615D01*
X143175446Y-110674893D01*
X143325848Y-110581821D01*
X143450805Y-110456646D01*
X143462124Y-110438283D01*
X143539775Y-110312311D01*
X143539776Y-110312309D01*
X143543615Y-110306081D01*
X143571493Y-110222031D01*
X143597132Y-110144732D01*
X143597132Y-110144730D01*
X143599297Y-110138204D01*
X143600454Y-110126919D01*
X143604409Y-110088312D01*
X143610000Y-110033743D01*
X143610000Y-108805700D01*
X143630002Y-108737579D01*
X143683658Y-108691086D01*
X143736000Y-108679700D01*
X144371106Y-108679700D01*
X144439227Y-108699702D01*
X144460201Y-108716605D01*
X144490695Y-108747099D01*
X144524721Y-108809411D01*
X144527600Y-108836194D01*
X144527600Y-110033743D01*
X144527937Y-110036989D01*
X144527937Y-110036993D01*
X144537268Y-110126920D01*
X144538574Y-110139509D01*
X144540755Y-110146045D01*
X144540755Y-110146047D01*
X144567076Y-110224939D01*
X144594550Y-110307289D01*
X144687622Y-110457691D01*
X144812797Y-110582648D01*
X144819027Y-110586488D01*
X144819028Y-110586489D01*
X144956190Y-110671037D01*
X144963362Y-110675458D01*
X145043105Y-110701907D01*
X145124711Y-110728975D01*
X145124713Y-110728975D01*
X145131239Y-110731140D01*
X145138075Y-110731840D01*
X145138078Y-110731841D01*
X145181131Y-110736252D01*
X145235700Y-110741843D01*
X146686500Y-110741843D01*
X146689746Y-110741506D01*
X146689750Y-110741506D01*
X146785408Y-110731581D01*
X146785412Y-110731580D01*
X146792266Y-110730869D01*
X146798802Y-110728688D01*
X146798804Y-110728688D01*
X146930906Y-110684615D01*
X146960046Y-110674893D01*
X147110448Y-110581821D01*
X147235405Y-110456646D01*
X147246724Y-110438283D01*
X147324375Y-110312311D01*
X147324376Y-110312309D01*
X147328215Y-110306081D01*
X147356093Y-110222031D01*
X147381732Y-110144732D01*
X147381732Y-110144730D01*
X147383897Y-110138204D01*
X147385054Y-110126919D01*
X147389009Y-110088312D01*
X147394600Y-110033743D01*
X148312200Y-110033743D01*
X148312537Y-110036989D01*
X148312537Y-110036993D01*
X148321868Y-110126920D01*
X148323174Y-110139509D01*
X148325355Y-110146045D01*
X148325355Y-110146047D01*
X148351676Y-110224939D01*
X148379150Y-110307289D01*
X148472222Y-110457691D01*
X148597397Y-110582648D01*
X148603627Y-110586488D01*
X148603628Y-110586489D01*
X148740790Y-110671037D01*
X148747962Y-110675458D01*
X148827705Y-110701907D01*
X148909311Y-110728975D01*
X148909313Y-110728975D01*
X148915839Y-110731140D01*
X148922675Y-110731840D01*
X148922678Y-110731841D01*
X148965731Y-110736252D01*
X149020300Y-110741843D01*
X150471100Y-110741843D01*
X150474346Y-110741506D01*
X150474350Y-110741506D01*
X150570008Y-110731581D01*
X150570012Y-110731580D01*
X150576866Y-110730869D01*
X150583402Y-110728688D01*
X150583404Y-110728688D01*
X150715506Y-110684615D01*
X150744646Y-110674893D01*
X150895048Y-110581821D01*
X151020005Y-110456646D01*
X151031324Y-110438283D01*
X151108975Y-110312311D01*
X151108976Y-110312309D01*
X151112815Y-110306081D01*
X151140693Y-110222031D01*
X151166332Y-110144732D01*
X151166332Y-110144730D01*
X151168497Y-110138204D01*
X151169654Y-110126919D01*
X151173609Y-110088312D01*
X151179200Y-110033743D01*
X151179200Y-108582943D01*
X151176349Y-108555466D01*
X151168938Y-108484035D01*
X151168937Y-108484031D01*
X151168226Y-108477177D01*
X151112250Y-108309397D01*
X151019178Y-108158995D01*
X150894003Y-108034038D01*
X150754937Y-107948316D01*
X150749668Y-107945068D01*
X150749666Y-107945067D01*
X150743438Y-107941228D01*
X150582954Y-107887998D01*
X150582089Y-107887711D01*
X150582087Y-107887711D01*
X150575561Y-107885546D01*
X150568725Y-107884846D01*
X150568722Y-107884845D01*
X150525004Y-107880366D01*
X150471100Y-107874843D01*
X149020300Y-107874843D01*
X149017054Y-107875180D01*
X149017050Y-107875180D01*
X148921392Y-107885105D01*
X148921388Y-107885106D01*
X148914534Y-107885817D01*
X148907998Y-107887998D01*
X148907996Y-107887998D01*
X148820084Y-107917328D01*
X148746754Y-107941793D01*
X148596352Y-108034865D01*
X148471395Y-108160040D01*
X148378585Y-108310605D01*
X148376281Y-108317552D01*
X148332909Y-108448316D01*
X148322903Y-108478482D01*
X148322203Y-108485318D01*
X148322202Y-108485321D01*
X148321065Y-108496420D01*
X148312200Y-108582943D01*
X148312200Y-110033743D01*
X147394600Y-110033743D01*
X147394600Y-108582943D01*
X147391749Y-108555466D01*
X147384338Y-108484035D01*
X147384337Y-108484031D01*
X147383626Y-108477177D01*
X147327650Y-108309397D01*
X147234578Y-108158995D01*
X147109403Y-108034038D01*
X146970337Y-107948316D01*
X146965068Y-107945068D01*
X146965066Y-107945067D01*
X146958838Y-107941228D01*
X146798354Y-107887998D01*
X146797489Y-107887711D01*
X146797487Y-107887711D01*
X146790961Y-107885546D01*
X146784125Y-107884846D01*
X146784122Y-107884845D01*
X146740404Y-107880366D01*
X146686500Y-107874843D01*
X146670981Y-107874843D01*
X146602860Y-107854841D01*
X146556367Y-107801185D01*
X146546263Y-107730911D01*
X146575757Y-107666331D01*
X146596920Y-107646907D01*
X146613521Y-107634846D01*
X146661253Y-107600166D01*
X146688356Y-107570065D01*
X146784621Y-107463152D01*
X146784622Y-107463151D01*
X146789040Y-107458244D01*
X146884527Y-107292856D01*
X146943542Y-107111228D01*
X146960907Y-106946006D01*
X146987920Y-106880350D01*
X146997122Y-106870082D01*
X147138852Y-106728352D01*
X147201164Y-106694326D01*
X147271979Y-106699391D01*
X147321583Y-106733136D01*
X147381847Y-106800066D01*
X147536348Y-106912318D01*
X147542376Y-106915002D01*
X147542378Y-106915003D01*
X147650658Y-106963212D01*
X147710812Y-106989994D01*
X147804213Y-107009847D01*
X147891156Y-107028328D01*
X147891161Y-107028328D01*
X147897613Y-107029700D01*
X148088587Y-107029700D01*
X148095039Y-107028328D01*
X148095044Y-107028328D01*
X148181987Y-107009847D01*
X148275388Y-106989994D01*
X148335542Y-106963212D01*
X148443822Y-106915003D01*
X148443824Y-106915002D01*
X148449852Y-106912318D01*
X148604353Y-106800066D01*
X148608768Y-106795163D01*
X148613680Y-106790740D01*
X148614805Y-106791989D01*
X148668114Y-106759149D01*
X148701300Y-106754700D01*
X154795506Y-106754700D01*
X154863627Y-106774702D01*
X154910120Y-106828358D01*
X154920224Y-106898632D01*
X154890730Y-106963212D01*
X154884602Y-106969794D01*
X152211149Y-109643246D01*
X149545600Y-112308795D01*
X149483288Y-112342821D01*
X149456505Y-112345700D01*
X141020668Y-112345700D01*
X141009485Y-112345173D01*
X141001992Y-112343498D01*
X140994066Y-112343747D01*
X140994065Y-112343747D01*
X140933902Y-112345638D01*
X140929944Y-112345700D01*
X140902044Y-112345700D01*
X140898054Y-112346204D01*
X140886220Y-112347136D01*
X140842011Y-112348526D01*
X140834397Y-112350738D01*
X140834392Y-112350739D01*
X140822559Y-112354177D01*
X140803196Y-112358188D01*
X140783103Y-112360726D01*
X140775736Y-112363643D01*
X140775731Y-112363644D01*
X140741992Y-112377002D01*
X140730765Y-112380846D01*
X140688307Y-112393182D01*
X140681481Y-112397219D01*
X140670872Y-112403493D01*
X140653124Y-112412188D01*
X140634283Y-112419648D01*
X140627867Y-112424310D01*
X140627866Y-112424310D01*
X140598513Y-112445636D01*
X140588593Y-112452152D01*
X140557365Y-112470620D01*
X140557362Y-112470622D01*
X140550538Y-112474658D01*
X140536217Y-112488979D01*
X140521184Y-112501819D01*
X140504793Y-112513728D01*
X140499742Y-112519833D01*
X140499737Y-112519838D01*
X140476601Y-112547804D01*
X140468613Y-112556582D01*
X139903600Y-113121595D01*
X139841288Y-113155621D01*
X139814505Y-113158500D01*
X138439618Y-113158500D01*
X138371497Y-113138498D01*
X138325004Y-113084842D01*
X138314900Y-113014568D01*
X138321636Y-112988270D01*
X138344978Y-112926005D01*
X138348605Y-112910751D01*
X138354131Y-112859886D01*
X138354500Y-112853072D01*
X138354500Y-112580515D01*
X138350025Y-112565276D01*
X138348635Y-112564071D01*
X138340952Y-112562400D01*
X135856616Y-112562400D01*
X135841377Y-112566875D01*
X135840172Y-112568265D01*
X135838501Y-112575948D01*
X135838501Y-112853069D01*
X135838871Y-112859890D01*
X135844395Y-112910752D01*
X135848021Y-112926003D01*
X135871364Y-112988270D01*
X135876547Y-113059077D01*
X135842627Y-113121446D01*
X135780371Y-113155575D01*
X135753382Y-113158500D01*
X130901463Y-113158500D01*
X130890279Y-113157973D01*
X130882791Y-113156299D01*
X130874868Y-113156548D01*
X130814733Y-113158438D01*
X130810775Y-113158500D01*
X130782844Y-113158500D01*
X130778929Y-113158995D01*
X130778925Y-113158995D01*
X130778867Y-113159003D01*
X130778838Y-113159006D01*
X130766996Y-113159939D01*
X130722810Y-113161327D01*
X130705444Y-113166372D01*
X130703358Y-113166978D01*
X130684006Y-113170986D01*
X130676935Y-113171880D01*
X130663903Y-113173526D01*
X130656534Y-113176443D01*
X130656532Y-113176444D01*
X130622797Y-113189800D01*
X130611569Y-113193645D01*
X130569107Y-113205982D01*
X130562285Y-113210016D01*
X130562279Y-113210019D01*
X130551668Y-113216294D01*
X130533918Y-113224990D01*
X130522456Y-113229528D01*
X130522451Y-113229531D01*
X130515083Y-113232448D01*
X130508668Y-113237109D01*
X130479325Y-113258427D01*
X130469407Y-113264943D01*
X130450719Y-113275995D01*
X130431337Y-113287458D01*
X130417013Y-113301782D01*
X130401981Y-113314621D01*
X130385593Y-113326528D01*
X130366689Y-113349379D01*
X130357412Y-113360593D01*
X130349422Y-113369373D01*
X129950600Y-113768195D01*
X129888288Y-113802221D01*
X129861505Y-113805100D01*
X128552966Y-113805100D01*
X128490784Y-113811855D01*
X128354395Y-113862985D01*
X128237839Y-113950339D01*
X128150485Y-114066895D01*
X128099355Y-114203284D01*
X128092600Y-114265466D01*
X128092600Y-115799100D01*
X128072598Y-115867221D01*
X128018942Y-115913714D01*
X127966600Y-115925100D01*
X126898088Y-115925100D01*
X126829967Y-115905098D01*
X126783474Y-115851442D01*
X126773370Y-115781168D01*
X126802864Y-115716588D01*
X126834517Y-115690312D01*
X126914219Y-115643738D01*
X126914220Y-115643737D01*
X126917922Y-115641574D01*
X127144159Y-115464182D01*
X127151485Y-115456623D01*
X127341244Y-115260806D01*
X127344227Y-115257728D01*
X127346760Y-115254280D01*
X127346764Y-115254275D01*
X127511887Y-115029486D01*
X127514425Y-115026031D01*
X127560614Y-114940961D01*
X127649554Y-114777155D01*
X127649555Y-114777153D01*
X127651604Y-114773379D01*
X127753225Y-114504448D01*
X127797759Y-114310003D01*
X127816449Y-114228397D01*
X127816450Y-114228393D01*
X127817407Y-114224213D01*
X127818436Y-114212692D01*
X127842743Y-113940326D01*
X127842743Y-113940324D01*
X127842963Y-113937860D01*
X127843427Y-113893600D01*
X127840159Y-113845669D01*
X127824165Y-113611052D01*
X127824164Y-113611046D01*
X127823873Y-113606775D01*
X127822772Y-113601456D01*
X127766443Y-113329455D01*
X127765574Y-113325258D01*
X127669607Y-113054257D01*
X127552681Y-112827717D01*
X127539715Y-112802595D01*
X127539715Y-112802594D01*
X127537750Y-112798788D01*
X127524488Y-112779917D01*
X127381135Y-112575948D01*
X127372441Y-112563577D01*
X127229432Y-112409681D01*
X127179661Y-112356121D01*
X127179658Y-112356119D01*
X127176740Y-112352978D01*
X126954268Y-112170887D01*
X126709142Y-112020673D01*
X126691048Y-112012730D01*
X126449830Y-111906843D01*
X126445898Y-111905117D01*
X126419963Y-111897729D01*
X126173534Y-111827532D01*
X126173535Y-111827532D01*
X126169406Y-111826356D01*
X125956704Y-111796085D01*
X125889036Y-111786454D01*
X125889034Y-111786454D01*
X125884784Y-111785849D01*
X125880495Y-111785827D01*
X125880488Y-111785826D01*
X125601583Y-111784365D01*
X125601576Y-111784365D01*
X125597297Y-111784343D01*
X125593053Y-111784902D01*
X125593049Y-111784902D01*
X125467660Y-111801410D01*
X125312266Y-111821868D01*
X125308126Y-111823001D01*
X125308124Y-111823001D01*
X125231311Y-111844015D01*
X125034964Y-111897729D01*
X125031016Y-111899413D01*
X124774476Y-112008837D01*
X124774472Y-112008839D01*
X124770524Y-112010523D01*
X124700003Y-112052729D01*
X124527521Y-112155957D01*
X124527517Y-112155960D01*
X124523839Y-112158161D01*
X124299472Y-112337913D01*
X124197247Y-112445636D01*
X124146769Y-112498829D01*
X124101577Y-112546451D01*
X123933814Y-112779917D01*
X123931805Y-112783712D01*
X123931804Y-112783713D01*
X123846954Y-112943967D01*
X123797402Y-112994810D01*
X123728227Y-113010792D01*
X123661394Y-112986838D01*
X123618120Y-112930554D01*
X123609600Y-112885008D01*
X123609600Y-97286186D01*
X123629602Y-97218065D01*
X123683258Y-97171572D01*
X123753532Y-97161468D01*
X123818112Y-97190962D01*
X123839439Y-97214818D01*
X123984821Y-97426350D01*
X123987708Y-97429523D01*
X123987709Y-97429524D01*
X124008029Y-97451855D01*
X124178306Y-97638988D01*
X124181601Y-97641743D01*
X124181602Y-97641744D01*
X124232358Y-97684182D01*
X124398859Y-97823398D01*
X124642398Y-97976171D01*
X124904418Y-98094477D01*
X124908537Y-98095697D01*
X125175957Y-98174911D01*
X125175962Y-98174912D01*
X125180070Y-98176129D01*
X125184304Y-98176777D01*
X125184309Y-98176778D01*
X125432911Y-98214819D01*
X125464253Y-98219615D01*
X125610585Y-98221914D01*
X125747417Y-98224064D01*
X125747423Y-98224064D01*
X125751708Y-98224131D01*
X125755960Y-98223616D01*
X125755968Y-98223616D01*
X126032856Y-98190108D01*
X126032861Y-98190107D01*
X126037117Y-98189592D01*
X126315197Y-98116639D01*
X126580804Y-98006621D01*
X126829022Y-97861574D01*
X127055259Y-97684182D01*
X127096385Y-97641744D01*
X127252344Y-97480806D01*
X127255327Y-97477728D01*
X127257860Y-97474280D01*
X127257864Y-97474275D01*
X127422987Y-97249486D01*
X127425525Y-97246031D01*
X127427571Y-97242263D01*
X127560654Y-96997155D01*
X127560655Y-96997153D01*
X127562704Y-96993379D01*
X127628015Y-96820539D01*
X127662807Y-96728466D01*
X127662808Y-96728462D01*
X127664325Y-96724448D01*
X127728507Y-96444213D01*
X127749825Y-96205353D01*
X127753843Y-96160326D01*
X127753843Y-96160324D01*
X127754063Y-96157860D01*
X127754527Y-96113600D01*
X127751026Y-96062242D01*
X127735265Y-95831052D01*
X127735264Y-95831046D01*
X127734973Y-95826775D01*
X127732904Y-95816781D01*
X127726585Y-95786270D01*
X127732358Y-95715508D01*
X127775470Y-95659101D01*
X127842236Y-95634956D01*
X127901215Y-95645612D01*
X128045177Y-95709708D01*
X128045185Y-95709711D01*
X128051212Y-95712394D01*
X128137509Y-95730737D01*
X128231556Y-95750728D01*
X128231561Y-95750728D01*
X128238013Y-95752100D01*
X128428987Y-95752100D01*
X128435439Y-95750728D01*
X128435444Y-95750728D01*
X128529491Y-95730737D01*
X128615788Y-95712394D01*
X128711645Y-95669716D01*
X128784222Y-95637403D01*
X128784224Y-95637402D01*
X128790252Y-95634718D01*
X128902997Y-95552804D01*
X128939414Y-95526345D01*
X128944753Y-95522466D01*
X128949168Y-95517563D01*
X128954080Y-95513140D01*
X128955205Y-95514389D01*
X129008514Y-95481549D01*
X129041700Y-95477100D01*
X129110136Y-95477100D01*
X129178257Y-95497102D01*
X129217279Y-95536796D01*
X129223984Y-95547631D01*
X129229166Y-95552804D01*
X129341916Y-95665358D01*
X129341921Y-95665362D01*
X129347097Y-95670529D01*
X129353327Y-95674369D01*
X129353328Y-95674370D01*
X129486934Y-95756726D01*
X129495180Y-95761809D01*
X129660291Y-95816574D01*
X129667127Y-95817274D01*
X129667130Y-95817275D01*
X129701928Y-95820840D01*
X129763028Y-95827100D01*
X130437172Y-95827100D01*
X130440418Y-95826763D01*
X130440422Y-95826763D01*
X130534335Y-95817019D01*
X130534339Y-95817018D01*
X130541193Y-95816307D01*
X130547729Y-95814126D01*
X130547731Y-95814126D01*
X130691328Y-95766218D01*
X130706207Y-95761254D01*
X130789505Y-95709708D01*
X130847905Y-95673569D01*
X130847906Y-95673568D01*
X130854131Y-95669716D01*
X130885979Y-95637813D01*
X130948259Y-95603734D01*
X131019079Y-95608737D01*
X131064167Y-95637657D01*
X131085649Y-95659101D01*
X131097097Y-95670529D01*
X131103327Y-95674369D01*
X131103328Y-95674370D01*
X131236934Y-95756726D01*
X131245180Y-95761809D01*
X131410291Y-95816574D01*
X131417127Y-95817274D01*
X131417130Y-95817275D01*
X131451928Y-95820840D01*
X131513028Y-95827100D01*
X132187172Y-95827100D01*
X132190418Y-95826763D01*
X132190422Y-95826763D01*
X132284335Y-95817019D01*
X132284339Y-95817018D01*
X132291193Y-95816307D01*
X132297729Y-95814126D01*
X132297731Y-95814126D01*
X132441328Y-95766218D01*
X132456207Y-95761254D01*
X132604131Y-95669716D01*
X132609697Y-95664140D01*
X132721858Y-95551784D01*
X132721862Y-95551779D01*
X132727029Y-95546603D01*
X132732957Y-95536986D01*
X132734986Y-95535159D01*
X132735407Y-95534627D01*
X132735498Y-95534699D01*
X132785728Y-95489492D01*
X132840218Y-95477100D01*
X132894736Y-95477100D01*
X132962857Y-95497102D01*
X133001879Y-95536796D01*
X133008584Y-95547631D01*
X133013766Y-95552804D01*
X133126516Y-95665358D01*
X133126521Y-95665362D01*
X133131697Y-95670529D01*
X133137927Y-95674369D01*
X133137928Y-95674370D01*
X133271534Y-95756726D01*
X133279780Y-95761809D01*
X133444891Y-95816574D01*
X133451727Y-95817274D01*
X133451730Y-95817275D01*
X133486528Y-95820840D01*
X133547628Y-95827100D01*
X134146772Y-95827100D01*
X134150018Y-95826763D01*
X134150022Y-95826763D01*
X134243935Y-95817019D01*
X134243939Y-95817018D01*
X134250793Y-95816307D01*
X134257329Y-95814126D01*
X134257331Y-95814126D01*
X134400928Y-95766218D01*
X134415807Y-95761254D01*
X134563731Y-95669716D01*
X134670801Y-95562459D01*
X134733082Y-95528380D01*
X134803902Y-95533383D01*
X134848991Y-95562304D01*
X134951829Y-95664963D01*
X134963240Y-95673975D01*
X135098763Y-95757512D01*
X135111941Y-95763656D01*
X135263466Y-95813915D01*
X135276832Y-95816781D01*
X135369470Y-95826272D01*
X135375885Y-95826600D01*
X135400085Y-95826600D01*
X135415324Y-95822125D01*
X135416529Y-95820735D01*
X135418200Y-95813052D01*
X135418200Y-95808485D01*
X135926200Y-95808485D01*
X135930675Y-95823724D01*
X135932065Y-95824929D01*
X135939748Y-95826600D01*
X135968466Y-95826600D01*
X135974982Y-95826263D01*
X136068832Y-95816525D01*
X136082228Y-95813632D01*
X136233653Y-95763112D01*
X136246815Y-95756947D01*
X136382192Y-95673174D01*
X136393590Y-95664140D01*
X136506063Y-95551471D01*
X136515075Y-95540060D01*
X136598612Y-95404537D01*
X136604756Y-95391359D01*
X136655015Y-95239834D01*
X136657881Y-95226468D01*
X136667372Y-95133830D01*
X136667700Y-95127415D01*
X136667700Y-95115715D01*
X136663225Y-95100476D01*
X136661835Y-95099271D01*
X136654152Y-95097600D01*
X135944315Y-95097600D01*
X135929076Y-95102075D01*
X135927871Y-95103465D01*
X135926200Y-95111148D01*
X135926200Y-95808485D01*
X135418200Y-95808485D01*
X135418200Y-94715600D01*
X135438202Y-94647479D01*
X135491858Y-94600986D01*
X135544200Y-94589600D01*
X136649585Y-94589600D01*
X136664824Y-94585125D01*
X136666029Y-94583735D01*
X136667700Y-94576052D01*
X136667700Y-94559834D01*
X136667363Y-94553318D01*
X136657625Y-94459468D01*
X136654732Y-94446072D01*
X136604212Y-94294647D01*
X136598048Y-94281487D01*
X136593663Y-94274401D01*
X136574827Y-94205948D01*
X136595990Y-94138179D01*
X136650432Y-94092609D01*
X136700809Y-94082100D01*
X138126600Y-94082100D01*
X138194721Y-94102102D01*
G37*
%TD.AperFunction*%
%TD*%
M02*
