%TF.GenerationSoftware,KiCad,Pcbnew,(6.0.11-0)*%
%TF.CreationDate,2023-02-12T12:49:48-05:00*%
%TF.ProjectId,EyeSPI-Featherwing,45796553-5049-42d4-9665-617468657277,2.0.0*%
%TF.SameCoordinates,Original*%
%TF.FileFunction,Copper,L1,Top*%
%TF.FilePolarity,Positive*%
%FSLAX46Y46*%
G04 Gerber Fmt 4.6, Leading zero omitted, Abs format (unit mm)*
G04 Created by KiCad (PCBNEW (6.0.11-0)) date 2023-02-12 12:49:48*
%MOMM*%
%LPD*%
G01*
G04 APERTURE LIST*
G04 Aperture macros list*
%AMRoundRect*
0 Rectangle with rounded corners*
0 $1 Rounding radius*
0 $2 $3 $4 $5 $6 $7 $8 $9 X,Y pos of 4 corners*
0 Add a 4 corners polygon primitive as box body*
4,1,4,$2,$3,$4,$5,$6,$7,$8,$9,$2,$3,0*
0 Add four circle primitives for the rounded corners*
1,1,$1+$1,$2,$3*
1,1,$1+$1,$4,$5*
1,1,$1+$1,$6,$7*
1,1,$1+$1,$8,$9*
0 Add four rect primitives between the rounded corners*
20,1,$1+$1,$2,$3,$4,$5,0*
20,1,$1+$1,$4,$5,$6,$7,0*
20,1,$1+$1,$6,$7,$8,$9,0*
20,1,$1+$1,$8,$9,$2,$3,0*%
G04 Aperture macros list end*
%TA.AperFunction,SMDPad,CuDef*%
%ADD10R,1.500000X1.000000*%
%TD*%
%TA.AperFunction,SMDPad,CuDef*%
%ADD11RoundRect,0.237500X-0.287500X-0.237500X0.287500X-0.237500X0.287500X0.237500X-0.287500X0.237500X0*%
%TD*%
%TA.AperFunction,SMDPad,CuDef*%
%ADD12R,1.300000X0.300000*%
%TD*%
%TA.AperFunction,SMDPad,CuDef*%
%ADD13R,2.200000X1.800000*%
%TD*%
%TA.AperFunction,SMDPad,CuDef*%
%ADD14RoundRect,0.237500X0.250000X0.237500X-0.250000X0.237500X-0.250000X-0.237500X0.250000X-0.237500X0*%
%TD*%
%TA.AperFunction,ComponentPad*%
%ADD15RoundRect,0.250000X-0.675000X-0.675000X0.675000X-0.675000X0.675000X0.675000X-0.675000X0.675000X0*%
%TD*%
%TA.AperFunction,ComponentPad*%
%ADD16R,1.700000X1.700000*%
%TD*%
%TA.AperFunction,ComponentPad*%
%ADD17O,1.700000X1.700000*%
%TD*%
%TA.AperFunction,ViaPad*%
%ADD18C,0.800000*%
%TD*%
%TA.AperFunction,Conductor*%
%ADD19C,0.250000*%
%TD*%
G04 APERTURE END LIST*
%TO.C,JP108*%
G36*
X157691100Y-98573400D02*
G01*
X157091100Y-98573400D01*
X157091100Y-98073400D01*
X157691100Y-98073400D01*
X157691100Y-98573400D01*
G37*
%TO.C,JP102*%
G36*
X137396500Y-111908400D02*
G01*
X136796500Y-111908400D01*
X136796500Y-111408400D01*
X137396500Y-111408400D01*
X137396500Y-111908400D01*
G37*
%TO.C,JP107*%
G36*
X155176500Y-111883000D02*
G01*
X154576500Y-111883000D01*
X154576500Y-111383000D01*
X155176500Y-111383000D01*
X155176500Y-111883000D01*
G37*
%TO.C,JP104*%
G36*
X165311100Y-98598800D02*
G01*
X164711100Y-98598800D01*
X164711100Y-98098800D01*
X165311100Y-98098800D01*
X165311100Y-98598800D01*
G37*
%TO.C,JP109*%
G36*
X157691100Y-111883000D02*
G01*
X157091100Y-111883000D01*
X157091100Y-111383000D01*
X157691100Y-111383000D01*
X157691100Y-111883000D01*
G37*
%TO.C,JP105*%
G36*
X162771100Y-98598800D02*
G01*
X162171100Y-98598800D01*
X162171100Y-98098800D01*
X162771100Y-98098800D01*
X162771100Y-98598800D01*
G37*
%TO.C,JP110*%
G36*
X160231100Y-99883800D02*
G01*
X159631100Y-99883800D01*
X159631100Y-99383800D01*
X160231100Y-99383800D01*
X160231100Y-99883800D01*
G37*
%TO.C,JP101*%
G36*
X167851100Y-98598800D02*
G01*
X167251100Y-98598800D01*
X167251100Y-98098800D01*
X167851100Y-98098800D01*
X167851100Y-98598800D01*
G37*
%TD*%
D10*
%TO.P,JP108,1,A*%
%TO.N,/TFT_DC*%
X157391100Y-98973400D03*
%TO.P,JP108,2,B*%
%TO.N,/9*%
X157391100Y-97673400D03*
%TD*%
%TO.P,JP102,1,A*%
%TO.N,/LITE*%
X137096500Y-111008400D03*
%TO.P,JP102,2,B*%
%TO.N,+3V3*%
X137096500Y-112308400D03*
%TD*%
D11*
%TO.P,D101,1,K*%
%TO.N,GND*%
X130100100Y-94843600D03*
%TO.P,D101,2,A*%
%TO.N,Net-(D101-Pad2)*%
X131850100Y-94843600D03*
%TD*%
D10*
%TO.P,JP107,1,A*%
%TO.N,/EYESPI_SCK*%
X154876500Y-110983000D03*
%TO.P,JP107,2,B*%
%TO.N,/SCK*%
X154876500Y-112283000D03*
%TD*%
D12*
%TO.P,J106,1,GPIO2*%
%TO.N,/GPIO2*%
X134029100Y-100753600D03*
%TO.P,J106,2,GPIO1*%
%TO.N,/GPIO1*%
X134029100Y-101253600D03*
%TO.P,J106,3,BUSY/TE*%
%TO.N,/BUSY*%
X134029100Y-101753600D03*
%TO.P,J106,4,INT*%
%TO.N,/INT*%
X134029100Y-102253600D03*
%TO.P,J106,5,SDA*%
%TO.N,/EYESPI_SDA*%
X134029100Y-102753600D03*
%TO.P,J106,6,SCL*%
%TO.N,/EYESPI_SCL*%
X134029100Y-103253600D03*
%TO.P,J106,7,~{TS_CS}*%
%TO.N,/~{TS_CS}*%
X134029100Y-103753600D03*
%TO.P,J106,8,~{MEM_CS}*%
%TO.N,/~{MEM_CS}*%
X134029100Y-104253600D03*
%TO.P,J106,9,~{SD_CS}*%
%TO.N,/~{CARD_CS}*%
X134029100Y-104753600D03*
%TO.P,J106,10,~{DISP_CS}*%
%TO.N,/~{TFT_CS}*%
X134029100Y-105253600D03*
%TO.P,J106,11,~{RESET}*%
%TO.N,/~{TFT_RST}*%
X134029100Y-105753600D03*
%TO.P,J106,12,DC*%
%TO.N,/TFT_DC*%
X134029100Y-106253600D03*
%TO.P,J106,13,MISO*%
%TO.N,/EYESPI_MISO*%
X134029100Y-106753600D03*
%TO.P,J106,14,MOSI*%
%TO.N,/EYESPI_MOSI*%
X134029100Y-107253600D03*
%TO.P,J106,15,SCK*%
%TO.N,/EYESPI_SCK*%
X134029100Y-107753600D03*
%TO.P,J106,16,GND*%
%TO.N,GND*%
X134029100Y-108253600D03*
%TO.P,J106,17,BL*%
%TO.N,/LITE*%
X134029100Y-108753600D03*
%TO.P,J106,18,VCC*%
%TO.N,+3V3*%
X134029100Y-109253600D03*
D13*
%TO.P,J106,MP,MP*%
%TO.N,unconnected-(J106-PadMP)*%
X130779100Y-98853600D03*
X130779100Y-111153600D03*
%TD*%
D10*
%TO.P,JP104,1,A*%
%TO.N,/EYESPI_SCL*%
X165011100Y-98998800D03*
%TO.P,JP104,2,B*%
%TO.N,/SCL*%
X165011100Y-97698800D03*
%TD*%
%TO.P,JP109,1,A*%
%TO.N,/EYESPI_MOSI*%
X157391100Y-110983000D03*
%TO.P,JP109,2,B*%
%TO.N,/MOSI*%
X157391100Y-112283000D03*
%TD*%
%TO.P,JP106,1,A*%
%TO.N,/INT*%
X149771100Y-98973400D03*
%TO.P,JP106,2,B*%
%TO.N,/12*%
X149771100Y-97673400D03*
%TD*%
%TO.P,JP103,1,A*%
%TO.N,/~{TS_CS}*%
X152311100Y-98973400D03*
%TO.P,JP103,2,B*%
%TO.N,/11*%
X152311100Y-97673400D03*
%TD*%
%TO.P,JP105,1,A*%
%TO.N,/~{TFT_CS}*%
X162471100Y-98998800D03*
%TO.P,JP105,2,B*%
%TO.N,/5*%
X162471100Y-97698800D03*
%TD*%
%TO.P,JP113,1,A*%
%TO.N,/BUSY*%
X147231100Y-98973400D03*
%TO.P,JP113,2,B*%
%TO.N,/13*%
X147231100Y-97673400D03*
%TD*%
%TO.P,JP111,1,A*%
%TO.N,/EYESPI_MISO*%
X159931100Y-110983000D03*
%TO.P,JP111,2,B*%
%TO.N,/MISO*%
X159931100Y-112283000D03*
%TD*%
%TO.P,JP110,1,A*%
%TO.N,/~{RST}*%
X159931100Y-100283800D03*
%TO.P,JP110,2,C*%
%TO.N,/~{TFT_RST}*%
X159931100Y-98983800D03*
%TO.P,JP110,3,B*%
%TO.N,/6*%
X159931100Y-97683800D03*
%TD*%
%TO.P,JP101,1,A*%
%TO.N,/EYESPI_SDA*%
X167551100Y-98998800D03*
%TO.P,JP101,2,B*%
%TO.N,/SDA*%
X167551100Y-97698800D03*
%TD*%
D14*
%TO.P,R101,1*%
%TO.N,+3V3*%
X135672200Y-94843600D03*
%TO.P,R101,2*%
%TO.N,Net-(D101-Pad2)*%
X133847200Y-94843600D03*
%TD*%
D15*
%TO.P,J108,1,Pin_1*%
%TO.N,/GPIO2*%
X137325100Y-98348800D03*
%TD*%
D10*
%TO.P,JP112,1,A*%
%TO.N,/~{CARD_CS}*%
X154851100Y-98973400D03*
%TO.P,JP112,2,B*%
%TO.N,/10*%
X154851100Y-97673400D03*
%TD*%
D15*
%TO.P,J109,1,Pin_1*%
%TO.N,/~{MEM_CS}*%
X143827500Y-98348800D03*
%TD*%
%TO.P,J107,1,Pin_1*%
%TO.N,/GPIO1*%
X140576300Y-98348800D03*
%TD*%
D16*
%TO.P,J102,1,Pin_1*%
%TO.N,/VBAT*%
X139611100Y-94843600D03*
D17*
%TO.P,J102,2,Pin_2*%
%TO.N,/EN*%
X142151100Y-94843600D03*
%TO.P,J102,3,Pin_3*%
%TO.N,/VBUS*%
X144691100Y-94843600D03*
%TO.P,J102,4,Pin_4*%
%TO.N,/13*%
X147231100Y-94843600D03*
%TO.P,J102,5,Pin_5*%
%TO.N,/12*%
X149771100Y-94843600D03*
%TO.P,J102,6,Pin_6*%
%TO.N,/11*%
X152311100Y-94843600D03*
%TO.P,J102,7,Pin_7*%
%TO.N,/10*%
X154851100Y-94843600D03*
%TO.P,J102,8,Pin_8*%
%TO.N,/9*%
X157391100Y-94843600D03*
%TO.P,J102,9,Pin_9*%
%TO.N,/6*%
X159931100Y-94843600D03*
%TO.P,J102,10,Pin_10*%
%TO.N,/5*%
X162471100Y-94843600D03*
%TO.P,J102,11,Pin_11*%
%TO.N,/SCL*%
X165011100Y-94843600D03*
%TO.P,J102,12,Pin_12*%
%TO.N,/SDA*%
X167551100Y-94843600D03*
%TD*%
D16*
%TO.P,J101,1,Pin_1*%
%TO.N,/~{RST}*%
X129451100Y-115163600D03*
D17*
%TO.P,J101,2,Pin_2*%
%TO.N,+3V3*%
X131991100Y-115163600D03*
%TO.P,J101,3,Pin_3*%
%TO.N,/AREF*%
X134531100Y-115163600D03*
%TO.P,J101,4,Pin_4*%
%TO.N,GND*%
X137071100Y-115163600D03*
%TO.P,J101,5,Pin_5*%
%TO.N,/A0*%
X139611100Y-115163600D03*
%TO.P,J101,6,Pin_6*%
%TO.N,/A1*%
X142151100Y-115163600D03*
%TO.P,J101,7,Pin_7*%
%TO.N,/A2*%
X144691100Y-115163600D03*
%TO.P,J101,8,Pin_8*%
%TO.N,/A3*%
X147231100Y-115163600D03*
%TO.P,J101,9,Pin_9*%
%TO.N,/A4*%
X149771100Y-115163600D03*
%TO.P,J101,10,Pin_10*%
%TO.N,/A5*%
X152311100Y-115163600D03*
%TO.P,J101,11,Pin_11*%
%TO.N,/SCK*%
X154851100Y-115163600D03*
%TO.P,J101,12,Pin_12*%
%TO.N,/MOSI*%
X157391100Y-115163600D03*
%TO.P,J101,13,Pin_13*%
%TO.N,/MISO*%
X159931100Y-115163600D03*
%TO.P,J101,14,Pin_14*%
%TO.N,/0 RX*%
X162471100Y-115163600D03*
%TO.P,J101,15,Pin_15*%
%TO.N,/1 TX*%
X165011100Y-115163600D03*
%TO.P,J101,16,Pin_16*%
%TO.N,GND*%
X167551100Y-115163600D03*
%TD*%
D18*
%TO.N,GND*%
X125387100Y-115163600D03*
X150075900Y-111658400D03*
X171361100Y-111353600D03*
X152260300Y-111658400D03*
X143878300Y-111658400D03*
X171259500Y-98907600D03*
X140474700Y-111607600D03*
X132448300Y-108254800D03*
X125387100Y-94843600D03*
X134023100Y-111556800D03*
X171361100Y-105511600D03*
%TO.N,/~{RST}*%
X149974300Y-102029100D03*
%TO.N,/TFT_DC*%
X157289500Y-100228400D03*
X157289500Y-106222800D03*
%TO.N,/~{TFT_RST}*%
X159931100Y-101904800D03*
X159931100Y-105511600D03*
%TO.N,/~{TFT_CS}*%
X162471100Y-100482400D03*
X162471100Y-103987600D03*
%TO.N,/~{CARD_CS}*%
X154851100Y-100431600D03*
X154851100Y-104529100D03*
%TO.N,/~{MEM_CS}*%
X132448300Y-104241600D03*
%TO.N,/EYESPI_SCL*%
X164960300Y-103478100D03*
X164960300Y-100431600D03*
%TO.N,/~{TS_CS}*%
X152311100Y-103978100D03*
X152311100Y-100482400D03*
%TD*%
D19*
%TO.N,GND*%
X133160700Y-108253600D02*
X134029100Y-108253600D01*
X132448300Y-108254800D02*
X133159500Y-108254800D01*
X133159500Y-108254800D02*
X133160700Y-108253600D01*
%TO.N,/MISO*%
X159931100Y-115163600D02*
X159931100Y-112283000D01*
%TO.N,/MOSI*%
X157391100Y-115163600D02*
X157391100Y-112283000D01*
%TO.N,/SCK*%
X154851100Y-115163600D02*
X154851100Y-112308400D01*
X154851100Y-112308400D02*
X154876500Y-112283000D01*
%TO.N,/~{RST}*%
X150002400Y-102057200D02*
X158356300Y-102057200D01*
X158356300Y-102057200D02*
X159931100Y-100482400D01*
X149974300Y-102029100D02*
X150002400Y-102057200D01*
X159931100Y-100482400D02*
X159931100Y-100283800D01*
%TO.N,Net-(D101-Pad2)*%
X131850100Y-94843600D02*
X133847200Y-94843600D01*
%TO.N,/13*%
X147231100Y-97673400D02*
X147231100Y-94843600D01*
%TO.N,/12*%
X149771100Y-97673400D02*
X149771100Y-94843600D01*
%TO.N,/11*%
X152311100Y-97673400D02*
X152311100Y-94843600D01*
%TO.N,/10*%
X154851100Y-97673400D02*
X154851100Y-94843600D01*
%TO.N,/9*%
X157391100Y-97673400D02*
X157391100Y-94843600D01*
%TO.N,/6*%
X159931100Y-97683800D02*
X159931100Y-94843600D01*
%TO.N,/5*%
X162471100Y-97698800D02*
X162471100Y-94843600D01*
%TO.N,/SCL*%
X165011100Y-97698800D02*
X165011100Y-94843600D01*
%TO.N,/SDA*%
X167551100Y-97698800D02*
X167551100Y-94843600D01*
%TO.N,/LITE*%
X135591700Y-108753600D02*
X134029100Y-108753600D01*
X137096500Y-111008400D02*
X137096500Y-110258400D01*
X137096500Y-110258400D02*
X135591700Y-108753600D01*
%TO.N,/EYESPI_SCK*%
X154876500Y-110983000D02*
X154876500Y-109956600D01*
X152666700Y-107746800D02*
X134035900Y-107746800D01*
X154876500Y-109956600D02*
X152666700Y-107746800D01*
X134035900Y-107746800D02*
X134029100Y-107753600D01*
%TO.N,/EYESPI_MOSI*%
X154662700Y-107253600D02*
X157391100Y-109982000D01*
X157391100Y-109982000D02*
X157391100Y-110983000D01*
X134029100Y-107253600D02*
X154662700Y-107253600D01*
%TO.N,/EYESPI_MISO*%
X156659400Y-106753600D02*
X134029100Y-106753600D01*
X159931100Y-110025300D02*
X156659400Y-106753600D01*
X159931100Y-110983000D02*
X159931100Y-110025300D01*
%TO.N,/TFT_DC*%
X157289500Y-99075000D02*
X157391100Y-98973400D01*
X157289500Y-100228400D02*
X157289500Y-99075000D01*
X157258700Y-106253600D02*
X134029100Y-106253600D01*
X157289500Y-106222800D02*
X157258700Y-106253600D01*
%TO.N,/~{TFT_RST}*%
X156082300Y-105753600D02*
X134029100Y-105753600D01*
X156338100Y-105497800D02*
X156082300Y-105753600D01*
X161006100Y-99373000D02*
X160616900Y-98983800D01*
X161006100Y-101439400D02*
X161006100Y-99373000D01*
X159931100Y-105511600D02*
X159917300Y-105497800D01*
X160540700Y-101904800D02*
X161006100Y-101439400D01*
X159931100Y-101904800D02*
X160540700Y-101904800D01*
X160616900Y-98983800D02*
X159931100Y-98983800D01*
X159917300Y-105497800D02*
X156338100Y-105497800D01*
%TO.N,/~{TFT_CS}*%
X134029100Y-105253600D02*
X155921900Y-105253600D01*
X157187900Y-103987600D02*
X162471100Y-103987600D01*
X162471100Y-100482400D02*
X162471100Y-98998800D01*
X155921900Y-105253600D02*
X157187900Y-103987600D01*
%TO.N,/~{CARD_CS}*%
X154851100Y-104529100D02*
X154626600Y-104753600D01*
X154626600Y-104753600D02*
X134029100Y-104753600D01*
X154851100Y-100431600D02*
X154851100Y-98973400D01*
%TO.N,/~{MEM_CS}*%
X132460300Y-104253600D02*
X132448300Y-104241600D01*
X134029100Y-104253600D02*
X132460300Y-104253600D01*
%TO.N,/EYESPI_SCL*%
X164960300Y-99049600D02*
X165011100Y-98998800D01*
X164960300Y-103478100D02*
X164735800Y-103253600D01*
X164960300Y-100431600D02*
X164960300Y-99049600D01*
X164735800Y-103253600D02*
X134029100Y-103253600D01*
%TO.N,/EYESPI_SDA*%
X134029100Y-102753600D02*
X166092700Y-102753600D01*
X166092700Y-102753600D02*
X167551100Y-101295200D01*
X167551100Y-101295200D02*
X167551100Y-98998800D01*
%TO.N,/INT*%
X146490900Y-102253600D02*
X149771100Y-98973400D01*
X134029100Y-102253600D02*
X146490900Y-102253600D01*
%TO.N,/BUSY*%
X134029100Y-101753600D02*
X144450900Y-101753600D01*
X144450900Y-101753600D02*
X147231100Y-98973400D01*
%TO.N,/~{TS_CS}*%
X152311100Y-100482400D02*
X152311100Y-98973400D01*
X152086600Y-103753600D02*
X152311100Y-103978100D01*
X134029100Y-103753600D02*
X148857500Y-103753600D01*
X148857500Y-103753600D02*
X152086600Y-103753600D01*
%TO.N,/GPIO1*%
X134029100Y-101253600D02*
X139068500Y-101253600D01*
X139068500Y-101253600D02*
X140576300Y-99745800D01*
X140576300Y-99745800D02*
X140576300Y-98348800D01*
%TO.N,/GPIO2*%
X137325100Y-99771200D02*
X137325100Y-98348800D01*
X136342700Y-100753600D02*
X137325100Y-99771200D01*
X134029100Y-100753600D02*
X136342700Y-100753600D01*
%TO.N,+3V3*%
X131723300Y-100851800D02*
X131723300Y-109053800D01*
X134029100Y-109253600D02*
X132973500Y-109253600D01*
X135672200Y-96902900D02*
X131723300Y-100851800D01*
X135547100Y-111810800D02*
X135547100Y-109728000D01*
X132973500Y-109253600D02*
X132499100Y-109728000D01*
X135672200Y-94843600D02*
X135672200Y-96902900D01*
X136044700Y-112308400D02*
X135547100Y-111810800D01*
X135547100Y-109728000D02*
X135072700Y-109253600D01*
X131723300Y-109053800D02*
X132499100Y-109829600D01*
X132499100Y-110223600D02*
X132499100Y-114655600D01*
X135072700Y-109253600D02*
X134029100Y-109253600D01*
X132499100Y-109728000D02*
X132499100Y-110223600D01*
X137096500Y-112308400D02*
X136044700Y-112308400D01*
X132499100Y-114655600D02*
X131991100Y-115163600D01*
X132499100Y-109829600D02*
X132499100Y-110223600D01*
%TO.N,unconnected-(J106-PadMP)*%
X130779100Y-98853600D02*
X130779100Y-111153600D01*
%TD*%
%TA.AperFunction,Conductor*%
%TO.N,GND*%
G36*
X129102256Y-94102102D02*
G01*
X129148749Y-94155758D01*
X129158853Y-94226032D01*
X129141395Y-94274216D01*
X129136188Y-94282663D01*
X129130044Y-94295841D01*
X129079785Y-94447366D01*
X129076919Y-94460732D01*
X129067428Y-94553370D01*
X129067100Y-94559785D01*
X129067100Y-94571485D01*
X129071575Y-94586724D01*
X129072965Y-94587929D01*
X129080648Y-94589600D01*
X130228100Y-94589600D01*
X130296221Y-94609602D01*
X130342714Y-94663258D01*
X130354100Y-94715600D01*
X130354100Y-95808485D01*
X130358575Y-95823724D01*
X130359965Y-95824929D01*
X130367648Y-95826600D01*
X130433866Y-95826600D01*
X130440382Y-95826263D01*
X130534232Y-95816525D01*
X130547628Y-95813632D01*
X130699053Y-95763112D01*
X130712215Y-95756947D01*
X130847592Y-95673174D01*
X130858995Y-95664136D01*
X130885625Y-95637460D01*
X130947907Y-95603381D01*
X131018727Y-95608384D01*
X131063815Y-95637305D01*
X131097097Y-95670529D01*
X131103327Y-95674369D01*
X131103328Y-95674370D01*
X131236934Y-95756726D01*
X131245180Y-95761809D01*
X131410291Y-95816574D01*
X131417127Y-95817274D01*
X131417130Y-95817275D01*
X131451928Y-95820840D01*
X131513028Y-95827100D01*
X132187172Y-95827100D01*
X132190418Y-95826763D01*
X132190422Y-95826763D01*
X132284335Y-95817019D01*
X132284339Y-95817018D01*
X132291193Y-95816307D01*
X132297729Y-95814126D01*
X132297731Y-95814126D01*
X132441328Y-95766218D01*
X132456207Y-95761254D01*
X132604131Y-95669716D01*
X132636331Y-95637460D01*
X132721858Y-95551784D01*
X132721862Y-95551779D01*
X132727029Y-95546603D01*
X132732957Y-95536986D01*
X132734986Y-95535159D01*
X132735407Y-95534627D01*
X132735498Y-95534699D01*
X132785728Y-95489492D01*
X132840218Y-95477100D01*
X132894736Y-95477100D01*
X132962857Y-95497102D01*
X133001879Y-95536796D01*
X133008584Y-95547631D01*
X133013766Y-95552804D01*
X133126516Y-95665358D01*
X133126521Y-95665362D01*
X133131697Y-95670529D01*
X133137927Y-95674369D01*
X133137928Y-95674370D01*
X133271534Y-95756726D01*
X133279780Y-95761809D01*
X133444891Y-95816574D01*
X133451727Y-95817274D01*
X133451730Y-95817275D01*
X133486528Y-95820840D01*
X133547628Y-95827100D01*
X134146772Y-95827100D01*
X134150018Y-95826763D01*
X134150022Y-95826763D01*
X134243935Y-95817019D01*
X134243939Y-95817018D01*
X134250793Y-95816307D01*
X134257329Y-95814126D01*
X134257331Y-95814126D01*
X134400928Y-95766218D01*
X134415807Y-95761254D01*
X134563731Y-95669716D01*
X134595931Y-95637460D01*
X134670447Y-95562814D01*
X134732730Y-95528735D01*
X134803550Y-95533738D01*
X134848637Y-95562659D01*
X134951515Y-95665357D01*
X134951520Y-95665361D01*
X134956697Y-95670529D01*
X134962924Y-95674367D01*
X134962926Y-95674369D01*
X134978816Y-95684164D01*
X135026309Y-95736936D01*
X135038700Y-95791424D01*
X135038700Y-96588306D01*
X135018698Y-96656427D01*
X135001795Y-96677401D01*
X132602695Y-99076500D01*
X132540383Y-99110526D01*
X132469567Y-99105461D01*
X132412732Y-99062914D01*
X132387921Y-98996394D01*
X132387600Y-98987405D01*
X132387600Y-97905466D01*
X132380845Y-97843284D01*
X132329715Y-97706895D01*
X132242361Y-97590339D01*
X132125805Y-97502985D01*
X131989416Y-97451855D01*
X131927234Y-97445100D01*
X129630966Y-97445100D01*
X129568784Y-97451855D01*
X129432395Y-97502985D01*
X129315839Y-97590339D01*
X129228485Y-97706895D01*
X129177355Y-97843284D01*
X129170600Y-97905466D01*
X129170600Y-99801734D01*
X129177355Y-99863916D01*
X129228485Y-100000305D01*
X129315839Y-100116861D01*
X129432395Y-100204215D01*
X129568784Y-100255345D01*
X129630966Y-100262100D01*
X130019600Y-100262100D01*
X130087721Y-100282102D01*
X130134214Y-100335758D01*
X130145600Y-100388100D01*
X130145600Y-109619100D01*
X130125598Y-109687221D01*
X130071942Y-109733714D01*
X130019600Y-109745100D01*
X129630966Y-109745100D01*
X129568784Y-109751855D01*
X129432395Y-109802985D01*
X129315839Y-109890339D01*
X129228485Y-110006895D01*
X129177355Y-110143284D01*
X129170600Y-110205466D01*
X129170600Y-112101734D01*
X129177355Y-112163916D01*
X129228485Y-112300305D01*
X129315839Y-112416861D01*
X129432395Y-112504215D01*
X129568784Y-112555345D01*
X129630966Y-112562100D01*
X131739600Y-112562100D01*
X131807721Y-112582102D01*
X131854214Y-112635758D01*
X131865600Y-112688100D01*
X131865600Y-113700233D01*
X131845598Y-113768354D01*
X131791942Y-113814847D01*
X131758660Y-113824783D01*
X131715605Y-113831371D01*
X131680301Y-113836773D01*
X131680300Y-113836773D01*
X131675191Y-113837555D01*
X131462856Y-113906957D01*
X131429454Y-113924345D01*
X131289075Y-113997422D01*
X131264707Y-114010107D01*
X131260574Y-114013210D01*
X131260571Y-114013212D01*
X131090200Y-114141130D01*
X131086065Y-114144235D01*
X131029637Y-114203284D01*
X131005383Y-114228664D01*
X130943859Y-114264094D01*
X130872946Y-114260637D01*
X130815160Y-114219391D01*
X130796307Y-114185843D01*
X130754867Y-114075303D01*
X130751715Y-114066895D01*
X130664361Y-113950339D01*
X130547805Y-113862985D01*
X130411416Y-113811855D01*
X130349234Y-113805100D01*
X128552966Y-113805100D01*
X128490784Y-113811855D01*
X128354395Y-113862985D01*
X128237839Y-113950339D01*
X128150485Y-114066895D01*
X128099355Y-114203284D01*
X128092600Y-114265466D01*
X128092600Y-115799100D01*
X128072598Y-115867221D01*
X128018942Y-115913714D01*
X127966600Y-115925100D01*
X125690467Y-115925100D01*
X125671082Y-115923600D01*
X125656249Y-115921290D01*
X125656245Y-115921290D01*
X125647376Y-115919909D01*
X125638474Y-115921073D01*
X125638471Y-115921073D01*
X125631088Y-115922039D01*
X125606509Y-115922833D01*
X125561899Y-115919909D01*
X125384178Y-115908260D01*
X125367838Y-115906109D01*
X125245623Y-115881799D01*
X125123404Y-115857488D01*
X125107494Y-115853225D01*
X124871498Y-115773115D01*
X124856274Y-115766809D01*
X124632758Y-115656584D01*
X124618484Y-115648343D01*
X124411271Y-115509887D01*
X124398195Y-115499854D01*
X124210822Y-115335532D01*
X124199168Y-115323878D01*
X124034846Y-115136505D01*
X124024813Y-115123429D01*
X123886357Y-114916216D01*
X123878116Y-114901942D01*
X123767891Y-114678426D01*
X123761584Y-114663200D01*
X123715788Y-114528289D01*
X123681475Y-114427206D01*
X123677211Y-114411293D01*
X123660655Y-114328057D01*
X123648204Y-114265466D01*
X123628591Y-114166862D01*
X123626440Y-114150522D01*
X123612576Y-113939007D01*
X123613750Y-113915832D01*
X123613434Y-113915804D01*
X123613870Y-113910944D01*
X123614676Y-113906152D01*
X123614829Y-113893600D01*
X123610873Y-113865976D01*
X123609600Y-113848114D01*
X123609600Y-96166850D01*
X123611346Y-96145945D01*
X123613870Y-96130944D01*
X123613870Y-96130941D01*
X123614676Y-96126152D01*
X123614829Y-96113600D01*
X123613103Y-96101547D01*
X123612101Y-96075445D01*
X123626440Y-95856678D01*
X123628591Y-95840338D01*
X123662530Y-95669716D01*
X123677212Y-95595904D01*
X123681475Y-95579994D01*
X123761585Y-95343998D01*
X123767891Y-95328774D01*
X123867214Y-95127366D01*
X129067100Y-95127366D01*
X129067437Y-95133882D01*
X129077175Y-95227732D01*
X129080068Y-95241128D01*
X129130588Y-95392553D01*
X129136753Y-95405715D01*
X129220526Y-95541092D01*
X129229560Y-95552490D01*
X129342229Y-95664963D01*
X129353640Y-95673975D01*
X129489163Y-95757512D01*
X129502341Y-95763656D01*
X129653866Y-95813915D01*
X129667232Y-95816781D01*
X129759870Y-95826272D01*
X129766285Y-95826600D01*
X129827985Y-95826600D01*
X129843224Y-95822125D01*
X129844429Y-95820735D01*
X129846100Y-95813052D01*
X129846100Y-95115715D01*
X129841625Y-95100476D01*
X129840235Y-95099271D01*
X129832552Y-95097600D01*
X129085215Y-95097600D01*
X129069976Y-95102075D01*
X129068771Y-95103465D01*
X129067100Y-95111148D01*
X129067100Y-95127366D01*
X123867214Y-95127366D01*
X123878116Y-95105258D01*
X123886357Y-95090984D01*
X124024813Y-94883771D01*
X124034846Y-94870695D01*
X124199168Y-94683322D01*
X124210822Y-94671668D01*
X124398195Y-94507346D01*
X124411271Y-94497313D01*
X124618484Y-94358857D01*
X124632758Y-94350616D01*
X124856274Y-94240391D01*
X124871500Y-94234084D01*
X125107494Y-94153975D01*
X125123404Y-94149712D01*
X125253350Y-94123864D01*
X125367838Y-94101091D01*
X125384178Y-94098940D01*
X125532966Y-94089187D01*
X125599337Y-94084837D01*
X125622450Y-94085867D01*
X125625954Y-94085910D01*
X125634824Y-94087291D01*
X125643726Y-94086127D01*
X125643728Y-94086127D01*
X125660549Y-94083927D01*
X125666386Y-94083164D01*
X125682721Y-94082100D01*
X129034135Y-94082100D01*
X129102256Y-94102102D01*
G37*
%TD.AperFunction*%
%TA.AperFunction,Conductor*%
G36*
X171331118Y-94083600D02*
G01*
X171345951Y-94085910D01*
X171345955Y-94085910D01*
X171354824Y-94087291D01*
X171363726Y-94086127D01*
X171363729Y-94086127D01*
X171371112Y-94085161D01*
X171395691Y-94084367D01*
X171422542Y-94086127D01*
X171618022Y-94098940D01*
X171634362Y-94101091D01*
X171748850Y-94123864D01*
X171878796Y-94149712D01*
X171894706Y-94153975D01*
X172130700Y-94234084D01*
X172145926Y-94240391D01*
X172369442Y-94350616D01*
X172383716Y-94358857D01*
X172590929Y-94497313D01*
X172604005Y-94507346D01*
X172791378Y-94671668D01*
X172803032Y-94683322D01*
X172967354Y-94870695D01*
X172977387Y-94883771D01*
X173115843Y-95090984D01*
X173124084Y-95105258D01*
X173234309Y-95328774D01*
X173240615Y-95343998D01*
X173320725Y-95579994D01*
X173324988Y-95595904D01*
X173339670Y-95669716D01*
X173373609Y-95840338D01*
X173375760Y-95856678D01*
X173389863Y-96071836D01*
X173388833Y-96094950D01*
X173388790Y-96098454D01*
X173387409Y-96107324D01*
X173388573Y-96116226D01*
X173388573Y-96116228D01*
X173391536Y-96138883D01*
X173392600Y-96155221D01*
X173392600Y-113844233D01*
X173391100Y-113863618D01*
X173388790Y-113878451D01*
X173388790Y-113878455D01*
X173387409Y-113887324D01*
X173388573Y-113896226D01*
X173388573Y-113896229D01*
X173389539Y-113903612D01*
X173390333Y-113928191D01*
X173375760Y-114150522D01*
X173373609Y-114166862D01*
X173353996Y-114265466D01*
X173341546Y-114328057D01*
X173324989Y-114411293D01*
X173320725Y-114427206D01*
X173286412Y-114528289D01*
X173240616Y-114663200D01*
X173234309Y-114678426D01*
X173124084Y-114901942D01*
X173115843Y-114916216D01*
X172977387Y-115123429D01*
X172967354Y-115136505D01*
X172803032Y-115323878D01*
X172791378Y-115335532D01*
X172604005Y-115499854D01*
X172590929Y-115509887D01*
X172383716Y-115648343D01*
X172369442Y-115656584D01*
X172145926Y-115766809D01*
X172130702Y-115773115D01*
X171894706Y-115853225D01*
X171878796Y-115857488D01*
X171756577Y-115881799D01*
X171634362Y-115906109D01*
X171618022Y-115908260D01*
X171469234Y-115918013D01*
X171402863Y-115922363D01*
X171379750Y-115921333D01*
X171376246Y-115921290D01*
X171367376Y-115919909D01*
X171358474Y-115921073D01*
X171358472Y-115921073D01*
X171345015Y-115922833D01*
X171335814Y-115924036D01*
X171319479Y-115925100D01*
X168892448Y-115925100D01*
X168824327Y-115905098D01*
X168777834Y-115851442D01*
X168767730Y-115781168D01*
X168779491Y-115743273D01*
X168815770Y-115669867D01*
X168819569Y-115660272D01*
X168881477Y-115456510D01*
X168883655Y-115446437D01*
X168885086Y-115435562D01*
X168882875Y-115421378D01*
X168869717Y-115417600D01*
X167423100Y-115417600D01*
X167354979Y-115397598D01*
X167308486Y-115343942D01*
X167297100Y-115291600D01*
X167297100Y-114891485D01*
X167805100Y-114891485D01*
X167809575Y-114906724D01*
X167810965Y-114907929D01*
X167818648Y-114909600D01*
X168869444Y-114909600D01*
X168882975Y-114905627D01*
X168884280Y-114896547D01*
X168842314Y-114729475D01*
X168838994Y-114719724D01*
X168754072Y-114524414D01*
X168749205Y-114515339D01*
X168633526Y-114336526D01*
X168627236Y-114328357D01*
X168483906Y-114170840D01*
X168476373Y-114163815D01*
X168309239Y-114031822D01*
X168300652Y-114026117D01*
X168114217Y-113923199D01*
X168104805Y-113918969D01*
X167904059Y-113847880D01*
X167894088Y-113845246D01*
X167822937Y-113832572D01*
X167809640Y-113834032D01*
X167805100Y-113848589D01*
X167805100Y-114891485D01*
X167297100Y-114891485D01*
X167297100Y-113846702D01*
X167293182Y-113833358D01*
X167278906Y-113831371D01*
X167240424Y-113837260D01*
X167230388Y-113839651D01*
X167027968Y-113905812D01*
X167018459Y-113909809D01*
X166829563Y-114008142D01*
X166820838Y-114013636D01*
X166650533Y-114141505D01*
X166642826Y-114148348D01*
X166495690Y-114302317D01*
X166489209Y-114310322D01*
X166384598Y-114463674D01*
X166329687Y-114508676D01*
X166259162Y-114516847D01*
X166195415Y-114485593D01*
X166174718Y-114461109D01*
X166093922Y-114336217D01*
X166093920Y-114336214D01*
X166091114Y-114331877D01*
X165940770Y-114166651D01*
X165936719Y-114163452D01*
X165936715Y-114163448D01*
X165769514Y-114031400D01*
X165769510Y-114031398D01*
X165765459Y-114028198D01*
X165760931Y-114025698D01*
X165645088Y-113961750D01*
X165569889Y-113920238D01*
X165565020Y-113918514D01*
X165565016Y-113918512D01*
X165364187Y-113847395D01*
X165364183Y-113847394D01*
X165359312Y-113845669D01*
X165354219Y-113844762D01*
X165354216Y-113844761D01*
X165144473Y-113807400D01*
X165144467Y-113807399D01*
X165139384Y-113806494D01*
X165065552Y-113805592D01*
X164921181Y-113803828D01*
X164921179Y-113803828D01*
X164916011Y-113803765D01*
X164695191Y-113837555D01*
X164482856Y-113906957D01*
X164449454Y-113924345D01*
X164309075Y-113997422D01*
X164284707Y-114010107D01*
X164280574Y-114013210D01*
X164280571Y-114013212D01*
X164110200Y-114141130D01*
X164106065Y-114144235D01*
X164102493Y-114147973D01*
X163994829Y-114260637D01*
X163951729Y-114305738D01*
X163844301Y-114463221D01*
X163789393Y-114508221D01*
X163718868Y-114516392D01*
X163655121Y-114485138D01*
X163634424Y-114460654D01*
X163553922Y-114336217D01*
X163553920Y-114336214D01*
X163551114Y-114331877D01*
X163400770Y-114166651D01*
X163396719Y-114163452D01*
X163396715Y-114163448D01*
X163229514Y-114031400D01*
X163229510Y-114031398D01*
X163225459Y-114028198D01*
X163220931Y-114025698D01*
X163105088Y-113961750D01*
X163029889Y-113920238D01*
X163025020Y-113918514D01*
X163025016Y-113918512D01*
X162824187Y-113847395D01*
X162824183Y-113847394D01*
X162819312Y-113845669D01*
X162814219Y-113844762D01*
X162814216Y-113844761D01*
X162604473Y-113807400D01*
X162604467Y-113807399D01*
X162599384Y-113806494D01*
X162525552Y-113805592D01*
X162381181Y-113803828D01*
X162381179Y-113803828D01*
X162376011Y-113803765D01*
X162155191Y-113837555D01*
X161942856Y-113906957D01*
X161909454Y-113924345D01*
X161769075Y-113997422D01*
X161744707Y-114010107D01*
X161740574Y-114013210D01*
X161740571Y-114013212D01*
X161570200Y-114141130D01*
X161566065Y-114144235D01*
X161562493Y-114147973D01*
X161454829Y-114260637D01*
X161411729Y-114305738D01*
X161304301Y-114463221D01*
X161249393Y-114508221D01*
X161178868Y-114516392D01*
X161115121Y-114485138D01*
X161094424Y-114460654D01*
X161013922Y-114336217D01*
X161013920Y-114336214D01*
X161011114Y-114331877D01*
X160860770Y-114166651D01*
X160856719Y-114163452D01*
X160856715Y-114163448D01*
X160689514Y-114031400D01*
X160689510Y-114031398D01*
X160685459Y-114028198D01*
X160680935Y-114025701D01*
X160680931Y-114025698D01*
X160629708Y-113997422D01*
X160579736Y-113946990D01*
X160564600Y-113887113D01*
X160564600Y-113417500D01*
X160584602Y-113349379D01*
X160638258Y-113302886D01*
X160690600Y-113291500D01*
X160729234Y-113291500D01*
X160791416Y-113284745D01*
X160927805Y-113233615D01*
X161044361Y-113146261D01*
X161131715Y-113029705D01*
X161182845Y-112893316D01*
X161189600Y-112831134D01*
X161189600Y-111734866D01*
X161182845Y-111672684D01*
X161180071Y-111665285D01*
X161179325Y-111662146D01*
X161179325Y-111603854D01*
X161180071Y-111600715D01*
X161182845Y-111593316D01*
X161189600Y-111531134D01*
X161189600Y-110434866D01*
X161182845Y-110372684D01*
X161131715Y-110236295D01*
X161044361Y-110119739D01*
X160927805Y-110032385D01*
X160791416Y-109981255D01*
X160729234Y-109974500D01*
X160674012Y-109974500D01*
X160605891Y-109954498D01*
X160559398Y-109900842D01*
X160551969Y-109879831D01*
X160550569Y-109874377D01*
X160549574Y-109866503D01*
X160544116Y-109852717D01*
X160533300Y-109825398D01*
X160529455Y-109814168D01*
X160519330Y-109779317D01*
X160519330Y-109779316D01*
X160517119Y-109771707D01*
X160512027Y-109763097D01*
X160506805Y-109754266D01*
X160498108Y-109736513D01*
X160493572Y-109725058D01*
X160490652Y-109717683D01*
X160464663Y-109681912D01*
X160458147Y-109671992D01*
X160448899Y-109656354D01*
X160435642Y-109633938D01*
X160421321Y-109619617D01*
X160408480Y-109604583D01*
X160407543Y-109603293D01*
X160396572Y-109588193D01*
X160362495Y-109560002D01*
X160353716Y-109552012D01*
X157890288Y-107088583D01*
X157856262Y-107026271D01*
X157861327Y-106955455D01*
X157895071Y-106905853D01*
X157895409Y-106905549D01*
X157900753Y-106901666D01*
X158028540Y-106759744D01*
X158124027Y-106594356D01*
X158183042Y-106412728D01*
X158186441Y-106380394D01*
X158200762Y-106244130D01*
X158227775Y-106178473D01*
X158285997Y-106137843D01*
X158326072Y-106131300D01*
X159210476Y-106131300D01*
X159278597Y-106151302D01*
X159304111Y-106172989D01*
X159319847Y-106190466D01*
X159474348Y-106302718D01*
X159480376Y-106305402D01*
X159480378Y-106305403D01*
X159642781Y-106377709D01*
X159648812Y-106380394D01*
X159742212Y-106400247D01*
X159829156Y-106418728D01*
X159829161Y-106418728D01*
X159835613Y-106420100D01*
X160026587Y-106420100D01*
X160033039Y-106418728D01*
X160033044Y-106418728D01*
X160119988Y-106400247D01*
X160213388Y-106380394D01*
X160219419Y-106377709D01*
X160381822Y-106305403D01*
X160381824Y-106305402D01*
X160387852Y-106302718D01*
X160542353Y-106190466D01*
X160558088Y-106172991D01*
X160665721Y-106053452D01*
X160665722Y-106053451D01*
X160670140Y-106048544D01*
X160765627Y-105883156D01*
X160824642Y-105701528D01*
X160844604Y-105511600D01*
X160824642Y-105321672D01*
X160765627Y-105140044D01*
X160670140Y-104974656D01*
X160542353Y-104832734D01*
X160544232Y-104831042D01*
X160512964Y-104780272D01*
X160514326Y-104709288D01*
X160553849Y-104650310D01*
X160618984Y-104622061D01*
X160634519Y-104621100D01*
X161762900Y-104621100D01*
X161831021Y-104641102D01*
X161850247Y-104657443D01*
X161850520Y-104657140D01*
X161855432Y-104661563D01*
X161859847Y-104666466D01*
X162014348Y-104778718D01*
X162020376Y-104781402D01*
X162020378Y-104781403D01*
X162182781Y-104853709D01*
X162188812Y-104856394D01*
X162282212Y-104876247D01*
X162369156Y-104894728D01*
X162369161Y-104894728D01*
X162375613Y-104896100D01*
X162566587Y-104896100D01*
X162573039Y-104894728D01*
X162573044Y-104894728D01*
X162659987Y-104876247D01*
X162753388Y-104856394D01*
X162759419Y-104853709D01*
X162921822Y-104781403D01*
X162921824Y-104781402D01*
X162927852Y-104778718D01*
X163082353Y-104666466D01*
X163105191Y-104641102D01*
X163205721Y-104529452D01*
X163205722Y-104529451D01*
X163210140Y-104524544D01*
X163305627Y-104359156D01*
X163364642Y-104177528D01*
X163366743Y-104157544D01*
X163381204Y-104019952D01*
X163383308Y-103999930D01*
X163410321Y-103934273D01*
X163468543Y-103893643D01*
X163508618Y-103887100D01*
X164074645Y-103887100D01*
X164142766Y-103907102D01*
X164183763Y-103950098D01*
X164221260Y-104015044D01*
X164225678Y-104019951D01*
X164225679Y-104019952D01*
X164276235Y-104076100D01*
X164349047Y-104156966D01*
X164503548Y-104269218D01*
X164509576Y-104271902D01*
X164509578Y-104271903D01*
X164635494Y-104327964D01*
X164678012Y-104346894D01*
X164771412Y-104366747D01*
X164858356Y-104385228D01*
X164858361Y-104385228D01*
X164864813Y-104386600D01*
X165055787Y-104386600D01*
X165062239Y-104385228D01*
X165062244Y-104385228D01*
X165149187Y-104366747D01*
X165242588Y-104346894D01*
X165285106Y-104327964D01*
X165411022Y-104271903D01*
X165411024Y-104271902D01*
X165417052Y-104269218D01*
X165571553Y-104156966D01*
X165644365Y-104076100D01*
X165694921Y-104019952D01*
X165694922Y-104019951D01*
X165699340Y-104015044D01*
X165761660Y-103907102D01*
X165791523Y-103855379D01*
X165791524Y-103855378D01*
X165794827Y-103849656D01*
X165853842Y-103668028D01*
X165871510Y-103499929D01*
X165898523Y-103434273D01*
X165956745Y-103393643D01*
X165996820Y-103387100D01*
X166013933Y-103387100D01*
X166025116Y-103387627D01*
X166032609Y-103389302D01*
X166040535Y-103389053D01*
X166040536Y-103389053D01*
X166100686Y-103387162D01*
X166104645Y-103387100D01*
X166132556Y-103387100D01*
X166136491Y-103386603D01*
X166136556Y-103386595D01*
X166148393Y-103385662D01*
X166180651Y-103384648D01*
X166184670Y-103384522D01*
X166192589Y-103384273D01*
X166212043Y-103378621D01*
X166231400Y-103374613D01*
X166243630Y-103373068D01*
X166243631Y-103373068D01*
X166251497Y-103372074D01*
X166258868Y-103369155D01*
X166258870Y-103369155D01*
X166292612Y-103355796D01*
X166303842Y-103351951D01*
X166338683Y-103341829D01*
X166338684Y-103341829D01*
X166346293Y-103339618D01*
X166353112Y-103335585D01*
X166353117Y-103335583D01*
X166363728Y-103329307D01*
X166381476Y-103320612D01*
X166400317Y-103313152D01*
X166436087Y-103287164D01*
X166446007Y-103280648D01*
X166477235Y-103262180D01*
X166477238Y-103262178D01*
X166484062Y-103258142D01*
X166498383Y-103243821D01*
X166513417Y-103230980D01*
X166523394Y-103223731D01*
X166529807Y-103219072D01*
X166557998Y-103184995D01*
X166565988Y-103176216D01*
X167943353Y-101798852D01*
X167951639Y-101791312D01*
X167958118Y-101787200D01*
X167964460Y-101780447D01*
X168004743Y-101737549D01*
X168007498Y-101734707D01*
X168027235Y-101714970D01*
X168029715Y-101711773D01*
X168037420Y-101702751D01*
X168062259Y-101676300D01*
X168067686Y-101670521D01*
X168071505Y-101663575D01*
X168071507Y-101663572D01*
X168077448Y-101652766D01*
X168088299Y-101636247D01*
X168095858Y-101626501D01*
X168100714Y-101620241D01*
X168103859Y-101612972D01*
X168103862Y-101612968D01*
X168118274Y-101579663D01*
X168123491Y-101569013D01*
X168144795Y-101530260D01*
X168149833Y-101510637D01*
X168156237Y-101491934D01*
X168161133Y-101480620D01*
X168161133Y-101480619D01*
X168164281Y-101473345D01*
X168165520Y-101465522D01*
X168165523Y-101465512D01*
X168171199Y-101429676D01*
X168173605Y-101418056D01*
X168182628Y-101382911D01*
X168182628Y-101382910D01*
X168184600Y-101375230D01*
X168184600Y-101354976D01*
X168186151Y-101335265D01*
X168188080Y-101323086D01*
X168189320Y-101315257D01*
X168185159Y-101271238D01*
X168184600Y-101259381D01*
X168184600Y-100133300D01*
X168204602Y-100065179D01*
X168258258Y-100018686D01*
X168310600Y-100007300D01*
X168349234Y-100007300D01*
X168411416Y-100000545D01*
X168547805Y-99949415D01*
X168664361Y-99862061D01*
X168751715Y-99745505D01*
X168802845Y-99609116D01*
X168809600Y-99546934D01*
X168809600Y-98450666D01*
X168802845Y-98388484D01*
X168800071Y-98381085D01*
X168799325Y-98377946D01*
X168799325Y-98319654D01*
X168800071Y-98316515D01*
X168802845Y-98309116D01*
X168809600Y-98246934D01*
X168809600Y-97150666D01*
X168802845Y-97088484D01*
X168751715Y-96952095D01*
X168664361Y-96835539D01*
X168547805Y-96748185D01*
X168411416Y-96697055D01*
X168349234Y-96690300D01*
X168310600Y-96690300D01*
X168242479Y-96670298D01*
X168195986Y-96616642D01*
X168184600Y-96564300D01*
X168184600Y-96124027D01*
X168204602Y-96055906D01*
X168245718Y-96016150D01*
X168249094Y-96014496D01*
X168430960Y-95884773D01*
X168459154Y-95856678D01*
X168574716Y-95741518D01*
X168589196Y-95727089D01*
X168630423Y-95669716D01*
X168716535Y-95549877D01*
X168719553Y-95545677D01*
X168723849Y-95536986D01*
X168816236Y-95350053D01*
X168816237Y-95350051D01*
X168818530Y-95345411D01*
X168883470Y-95131669D01*
X168912629Y-94910190D01*
X168912711Y-94906840D01*
X168914174Y-94846965D01*
X168914174Y-94846961D01*
X168914256Y-94843600D01*
X168895952Y-94620961D01*
X168841531Y-94404302D01*
X168778065Y-94258340D01*
X168769245Y-94187896D01*
X168799912Y-94123864D01*
X168860328Y-94086576D01*
X168893615Y-94082100D01*
X171311733Y-94082100D01*
X171331118Y-94083600D01*
G37*
%TD.AperFunction*%
%TA.AperFunction,Conductor*%
G36*
X152420227Y-108400302D02*
G01*
X152441201Y-108417205D01*
X153877968Y-109853973D01*
X153911994Y-109916285D01*
X153906929Y-109987101D01*
X153864438Y-110043894D01*
X153770420Y-110114357D01*
X153763239Y-110119739D01*
X153675885Y-110236295D01*
X153624755Y-110372684D01*
X153618000Y-110434866D01*
X153618000Y-111531134D01*
X153624755Y-111593316D01*
X153627529Y-111600715D01*
X153628275Y-111603854D01*
X153628275Y-111662146D01*
X153627529Y-111665285D01*
X153624755Y-111672684D01*
X153618000Y-111734866D01*
X153618000Y-112831134D01*
X153624755Y-112893316D01*
X153675885Y-113029705D01*
X153763239Y-113146261D01*
X153879795Y-113233615D01*
X154016184Y-113284745D01*
X154078366Y-113291500D01*
X154091600Y-113291500D01*
X154159721Y-113311502D01*
X154206214Y-113365158D01*
X154217600Y-113417500D01*
X154217600Y-113885292D01*
X154197598Y-113953413D01*
X154149783Y-113997053D01*
X154124707Y-114010107D01*
X154120574Y-114013210D01*
X154120571Y-114013212D01*
X153950200Y-114141130D01*
X153946065Y-114144235D01*
X153942493Y-114147973D01*
X153834829Y-114260637D01*
X153791729Y-114305738D01*
X153684301Y-114463221D01*
X153629393Y-114508221D01*
X153558868Y-114516392D01*
X153495121Y-114485138D01*
X153474424Y-114460654D01*
X153393922Y-114336217D01*
X153393920Y-114336214D01*
X153391114Y-114331877D01*
X153240770Y-114166651D01*
X153236719Y-114163452D01*
X153236715Y-114163448D01*
X153069514Y-114031400D01*
X153069510Y-114031398D01*
X153065459Y-114028198D01*
X153060931Y-114025698D01*
X152945088Y-113961750D01*
X152869889Y-113920238D01*
X152865020Y-113918514D01*
X152865016Y-113918512D01*
X152664187Y-113847395D01*
X152664183Y-113847394D01*
X152659312Y-113845669D01*
X152654219Y-113844762D01*
X152654216Y-113844761D01*
X152444473Y-113807400D01*
X152444467Y-113807399D01*
X152439384Y-113806494D01*
X152365552Y-113805592D01*
X152221181Y-113803828D01*
X152221179Y-113803828D01*
X152216011Y-113803765D01*
X151995191Y-113837555D01*
X151782856Y-113906957D01*
X151749454Y-113924345D01*
X151609075Y-113997422D01*
X151584707Y-114010107D01*
X151580574Y-114013210D01*
X151580571Y-114013212D01*
X151410200Y-114141130D01*
X151406065Y-114144235D01*
X151402493Y-114147973D01*
X151294829Y-114260637D01*
X151251729Y-114305738D01*
X151144301Y-114463221D01*
X151089393Y-114508221D01*
X151018868Y-114516392D01*
X150955121Y-114485138D01*
X150934424Y-114460654D01*
X150853922Y-114336217D01*
X150853920Y-114336214D01*
X150851114Y-114331877D01*
X150700770Y-114166651D01*
X150696719Y-114163452D01*
X150696715Y-114163448D01*
X150529514Y-114031400D01*
X150529510Y-114031398D01*
X150525459Y-114028198D01*
X150520931Y-114025698D01*
X150405088Y-113961750D01*
X150329889Y-113920238D01*
X150325020Y-113918514D01*
X150325016Y-113918512D01*
X150124187Y-113847395D01*
X150124183Y-113847394D01*
X150119312Y-113845669D01*
X150114219Y-113844762D01*
X150114216Y-113844761D01*
X149904473Y-113807400D01*
X149904467Y-113807399D01*
X149899384Y-113806494D01*
X149825552Y-113805592D01*
X149681181Y-113803828D01*
X149681179Y-113803828D01*
X149676011Y-113803765D01*
X149455191Y-113837555D01*
X149242856Y-113906957D01*
X149209454Y-113924345D01*
X149069075Y-113997422D01*
X149044707Y-114010107D01*
X149040574Y-114013210D01*
X149040571Y-114013212D01*
X148870200Y-114141130D01*
X148866065Y-114144235D01*
X148862493Y-114147973D01*
X148754829Y-114260637D01*
X148711729Y-114305738D01*
X148604301Y-114463221D01*
X148549393Y-114508221D01*
X148478868Y-114516392D01*
X148415121Y-114485138D01*
X148394424Y-114460654D01*
X148313922Y-114336217D01*
X148313920Y-114336214D01*
X148311114Y-114331877D01*
X148160770Y-114166651D01*
X148156719Y-114163452D01*
X148156715Y-114163448D01*
X147989514Y-114031400D01*
X147989510Y-114031398D01*
X147985459Y-114028198D01*
X147980931Y-114025698D01*
X147865088Y-113961750D01*
X147789889Y-113920238D01*
X147785020Y-113918514D01*
X147785016Y-113918512D01*
X147584187Y-113847395D01*
X147584183Y-113847394D01*
X147579312Y-113845669D01*
X147574219Y-113844762D01*
X147574216Y-113844761D01*
X147364473Y-113807400D01*
X147364467Y-113807399D01*
X147359384Y-113806494D01*
X147285552Y-113805592D01*
X147141181Y-113803828D01*
X147141179Y-113803828D01*
X147136011Y-113803765D01*
X146915191Y-113837555D01*
X146702856Y-113906957D01*
X146669454Y-113924345D01*
X146529075Y-113997422D01*
X146504707Y-114010107D01*
X146500574Y-114013210D01*
X146500571Y-114013212D01*
X146330200Y-114141130D01*
X146326065Y-114144235D01*
X146322493Y-114147973D01*
X146214829Y-114260637D01*
X146171729Y-114305738D01*
X146064301Y-114463221D01*
X146009393Y-114508221D01*
X145938868Y-114516392D01*
X145875121Y-114485138D01*
X145854424Y-114460654D01*
X145773922Y-114336217D01*
X145773920Y-114336214D01*
X145771114Y-114331877D01*
X145620770Y-114166651D01*
X145616719Y-114163452D01*
X145616715Y-114163448D01*
X145449514Y-114031400D01*
X145449510Y-114031398D01*
X145445459Y-114028198D01*
X145440931Y-114025698D01*
X145325088Y-113961750D01*
X145249889Y-113920238D01*
X145245020Y-113918514D01*
X145245016Y-113918512D01*
X145044187Y-113847395D01*
X145044183Y-113847394D01*
X145039312Y-113845669D01*
X145034219Y-113844762D01*
X145034216Y-113844761D01*
X144824473Y-113807400D01*
X144824467Y-113807399D01*
X144819384Y-113806494D01*
X144745552Y-113805592D01*
X144601181Y-113803828D01*
X144601179Y-113803828D01*
X144596011Y-113803765D01*
X144375191Y-113837555D01*
X144162856Y-113906957D01*
X144129454Y-113924345D01*
X143989075Y-113997422D01*
X143964707Y-114010107D01*
X143960574Y-114013210D01*
X143960571Y-114013212D01*
X143790200Y-114141130D01*
X143786065Y-114144235D01*
X143782493Y-114147973D01*
X143674829Y-114260637D01*
X143631729Y-114305738D01*
X143524301Y-114463221D01*
X143469393Y-114508221D01*
X143398868Y-114516392D01*
X143335121Y-114485138D01*
X143314424Y-114460654D01*
X143233922Y-114336217D01*
X143233920Y-114336214D01*
X143231114Y-114331877D01*
X143080770Y-114166651D01*
X143076719Y-114163452D01*
X143076715Y-114163448D01*
X142909514Y-114031400D01*
X142909510Y-114031398D01*
X142905459Y-114028198D01*
X142900931Y-114025698D01*
X142785088Y-113961750D01*
X142709889Y-113920238D01*
X142705020Y-113918514D01*
X142705016Y-113918512D01*
X142504187Y-113847395D01*
X142504183Y-113847394D01*
X142499312Y-113845669D01*
X142494219Y-113844762D01*
X142494216Y-113844761D01*
X142284473Y-113807400D01*
X142284467Y-113807399D01*
X142279384Y-113806494D01*
X142205552Y-113805592D01*
X142061181Y-113803828D01*
X142061179Y-113803828D01*
X142056011Y-113803765D01*
X141835191Y-113837555D01*
X141622856Y-113906957D01*
X141589454Y-113924345D01*
X141449075Y-113997422D01*
X141424707Y-114010107D01*
X141420574Y-114013210D01*
X141420571Y-114013212D01*
X141250200Y-114141130D01*
X141246065Y-114144235D01*
X141242493Y-114147973D01*
X141134829Y-114260637D01*
X141091729Y-114305738D01*
X140984301Y-114463221D01*
X140929393Y-114508221D01*
X140858868Y-114516392D01*
X140795121Y-114485138D01*
X140774424Y-114460654D01*
X140693922Y-114336217D01*
X140693920Y-114336214D01*
X140691114Y-114331877D01*
X140540770Y-114166651D01*
X140536719Y-114163452D01*
X140536715Y-114163448D01*
X140369514Y-114031400D01*
X140369510Y-114031398D01*
X140365459Y-114028198D01*
X140360931Y-114025698D01*
X140245088Y-113961750D01*
X140169889Y-113920238D01*
X140165020Y-113918514D01*
X140165016Y-113918512D01*
X139964187Y-113847395D01*
X139964183Y-113847394D01*
X139959312Y-113845669D01*
X139954219Y-113844762D01*
X139954216Y-113844761D01*
X139744473Y-113807400D01*
X139744467Y-113807399D01*
X139739384Y-113806494D01*
X139665552Y-113805592D01*
X139521181Y-113803828D01*
X139521179Y-113803828D01*
X139516011Y-113803765D01*
X139295191Y-113837555D01*
X139082856Y-113906957D01*
X139049454Y-113924345D01*
X138909075Y-113997422D01*
X138884707Y-114010107D01*
X138880574Y-114013210D01*
X138880571Y-114013212D01*
X138710200Y-114141130D01*
X138706065Y-114144235D01*
X138702493Y-114147973D01*
X138594829Y-114260637D01*
X138551729Y-114305738D01*
X138444304Y-114463218D01*
X138443998Y-114463666D01*
X138389087Y-114508669D01*
X138318562Y-114516840D01*
X138254815Y-114485586D01*
X138234118Y-114461102D01*
X138153526Y-114336526D01*
X138147236Y-114328357D01*
X138003906Y-114170840D01*
X137996373Y-114163815D01*
X137829239Y-114031822D01*
X137820652Y-114026117D01*
X137634217Y-113923199D01*
X137624805Y-113918969D01*
X137424059Y-113847880D01*
X137414088Y-113845246D01*
X137342937Y-113832572D01*
X137329640Y-113834032D01*
X137325100Y-113848589D01*
X137325100Y-115291600D01*
X137305098Y-115359721D01*
X137251442Y-115406214D01*
X137199100Y-115417600D01*
X136943100Y-115417600D01*
X136874979Y-115397598D01*
X136828486Y-115343942D01*
X136817100Y-115291600D01*
X136817100Y-113846702D01*
X136813182Y-113833358D01*
X136798906Y-113831371D01*
X136760424Y-113837260D01*
X136750388Y-113839651D01*
X136547968Y-113905812D01*
X136538459Y-113909809D01*
X136349563Y-114008142D01*
X136340838Y-114013636D01*
X136170533Y-114141505D01*
X136162826Y-114148348D01*
X136015690Y-114302317D01*
X136009209Y-114310322D01*
X135904598Y-114463674D01*
X135849687Y-114508676D01*
X135779162Y-114516847D01*
X135715415Y-114485593D01*
X135694718Y-114461109D01*
X135613922Y-114336217D01*
X135613920Y-114336214D01*
X135611114Y-114331877D01*
X135460770Y-114166651D01*
X135456719Y-114163452D01*
X135456715Y-114163448D01*
X135289514Y-114031400D01*
X135289510Y-114031398D01*
X135285459Y-114028198D01*
X135280931Y-114025698D01*
X135165088Y-113961750D01*
X135089889Y-113920238D01*
X135085020Y-113918514D01*
X135085016Y-113918512D01*
X134884187Y-113847395D01*
X134884183Y-113847394D01*
X134879312Y-113845669D01*
X134874219Y-113844762D01*
X134874216Y-113844761D01*
X134664473Y-113807400D01*
X134664467Y-113807399D01*
X134659384Y-113806494D01*
X134585552Y-113805592D01*
X134441181Y-113803828D01*
X134441179Y-113803828D01*
X134436011Y-113803765D01*
X134215191Y-113837555D01*
X134002856Y-113906957D01*
X133969454Y-113924345D01*
X133829075Y-113997422D01*
X133804707Y-114010107D01*
X133800574Y-114013210D01*
X133800571Y-114013212D01*
X133630200Y-114141130D01*
X133626065Y-114144235D01*
X133622493Y-114147973D01*
X133514829Y-114260637D01*
X133471729Y-114305738D01*
X133468820Y-114310003D01*
X133468814Y-114310011D01*
X133364303Y-114463218D01*
X133309392Y-114508221D01*
X133238867Y-114516392D01*
X133175120Y-114485138D01*
X133154416Y-114460643D01*
X133152801Y-114458146D01*
X133132600Y-114389717D01*
X133132600Y-110042594D01*
X133152602Y-109974473D01*
X133169505Y-109953499D01*
X133179981Y-109943023D01*
X133242293Y-109908997D01*
X133282684Y-109906855D01*
X133293510Y-109908031D01*
X133330966Y-109912100D01*
X134727234Y-109912100D01*
X134764690Y-109908031D01*
X134834573Y-109920559D01*
X134867393Y-109944199D01*
X134876695Y-109953501D01*
X134910721Y-110015813D01*
X134913600Y-110042596D01*
X134913600Y-111732033D01*
X134913073Y-111743216D01*
X134911398Y-111750709D01*
X134911647Y-111758635D01*
X134911647Y-111758636D01*
X134913538Y-111818786D01*
X134913600Y-111822745D01*
X134913600Y-111850656D01*
X134914097Y-111854590D01*
X134914097Y-111854591D01*
X134914105Y-111854656D01*
X134915038Y-111866493D01*
X134916427Y-111910689D01*
X134922078Y-111930139D01*
X134926087Y-111949500D01*
X134928626Y-111969597D01*
X134931545Y-111976968D01*
X134931545Y-111976970D01*
X134944904Y-112010712D01*
X134948749Y-112021942D01*
X134961082Y-112064393D01*
X134965115Y-112071212D01*
X134965117Y-112071217D01*
X134971393Y-112081828D01*
X134980088Y-112099576D01*
X134987548Y-112118417D01*
X134992210Y-112124833D01*
X134992210Y-112124834D01*
X135013536Y-112154187D01*
X135020052Y-112164107D01*
X135042558Y-112202162D01*
X135056879Y-112216483D01*
X135069719Y-112231516D01*
X135081628Y-112247907D01*
X135087734Y-112252958D01*
X135115705Y-112276098D01*
X135124484Y-112284088D01*
X135541043Y-112700647D01*
X135548587Y-112708937D01*
X135552700Y-112715418D01*
X135558477Y-112720843D01*
X135602367Y-112762058D01*
X135605209Y-112764813D01*
X135624931Y-112784535D01*
X135628055Y-112786958D01*
X135628059Y-112786962D01*
X135628124Y-112787012D01*
X135637145Y-112794717D01*
X135669379Y-112824986D01*
X135676327Y-112828805D01*
X135676329Y-112828807D01*
X135687132Y-112834746D01*
X135703659Y-112845602D01*
X135713398Y-112853157D01*
X135713400Y-112853158D01*
X135719660Y-112858014D01*
X135760240Y-112875574D01*
X135770882Y-112880788D01*
X135805125Y-112899613D01*
X135855183Y-112949958D01*
X135862405Y-112965798D01*
X135886152Y-113029142D01*
X135895885Y-113055105D01*
X135983239Y-113171661D01*
X136099795Y-113259015D01*
X136236184Y-113310145D01*
X136298366Y-113316900D01*
X137894634Y-113316900D01*
X137956816Y-113310145D01*
X138093205Y-113259015D01*
X138209761Y-113171661D01*
X138297115Y-113055105D01*
X138348245Y-112918716D01*
X138355000Y-112856534D01*
X138355000Y-111760266D01*
X138348245Y-111698084D01*
X138345471Y-111690685D01*
X138344725Y-111687546D01*
X138344725Y-111629254D01*
X138345471Y-111626115D01*
X138348245Y-111618716D01*
X138355000Y-111556534D01*
X138355000Y-110460266D01*
X138348245Y-110398084D01*
X138297115Y-110261695D01*
X138209761Y-110145139D01*
X138093205Y-110057785D01*
X137956816Y-110006655D01*
X137894634Y-109999900D01*
X137755938Y-109999900D01*
X137687817Y-109979898D01*
X137654002Y-109947961D01*
X137630064Y-109915013D01*
X137623547Y-109905092D01*
X137621034Y-109900842D01*
X137601042Y-109867038D01*
X137586721Y-109852717D01*
X137573880Y-109837683D01*
X137566631Y-109827706D01*
X137561972Y-109821293D01*
X137527895Y-109793102D01*
X137519116Y-109785112D01*
X136329400Y-108595395D01*
X136295374Y-108533083D01*
X136300439Y-108462267D01*
X136342986Y-108405432D01*
X136409506Y-108380621D01*
X136418495Y-108380300D01*
X152352106Y-108380300D01*
X152420227Y-108400302D01*
G37*
%TD.AperFunction*%
%TA.AperFunction,Conductor*%
G36*
X132789194Y-105118386D02*
G01*
X132845826Y-105161203D01*
X132870320Y-105227840D01*
X132870600Y-105236231D01*
X132870600Y-105451734D01*
X132870969Y-105455129D01*
X132870969Y-105455133D01*
X132874756Y-105489993D01*
X132874756Y-105517206D01*
X132870600Y-105555466D01*
X132870600Y-105951734D01*
X132870969Y-105955129D01*
X132870969Y-105955133D01*
X132874756Y-105989993D01*
X132874756Y-106017206D01*
X132870600Y-106055466D01*
X132870600Y-106451734D01*
X132870969Y-106455129D01*
X132870969Y-106455133D01*
X132874756Y-106489993D01*
X132874756Y-106517206D01*
X132870600Y-106555466D01*
X132870600Y-106951734D01*
X132870969Y-106955129D01*
X132870969Y-106955133D01*
X132874756Y-106989993D01*
X132874756Y-107017206D01*
X132870600Y-107055466D01*
X132870600Y-107451734D01*
X132870969Y-107455129D01*
X132870969Y-107455133D01*
X132874756Y-107489993D01*
X132874756Y-107517206D01*
X132870600Y-107555466D01*
X132870600Y-107951734D01*
X132875009Y-107992320D01*
X132875009Y-108019533D01*
X132871469Y-108052117D01*
X132871100Y-108058928D01*
X132871100Y-108085485D01*
X132875575Y-108100724D01*
X132901270Y-108122989D01*
X132900812Y-108123518D01*
X132913200Y-108130282D01*
X132928308Y-108150440D01*
X132928486Y-108150306D01*
X132949268Y-108178036D01*
X132974115Y-108244543D01*
X132959061Y-108313925D01*
X132949268Y-108329164D01*
X132928486Y-108356894D01*
X132928197Y-108356678D01*
X132882035Y-108402739D01*
X132876682Y-108404953D01*
X132872772Y-108409465D01*
X132871101Y-108417148D01*
X132871101Y-108448270D01*
X132871470Y-108455088D01*
X132875009Y-108487667D01*
X132875009Y-108514883D01*
X132872278Y-108540019D01*
X132845035Y-108605580D01*
X132793399Y-108643561D01*
X132773583Y-108651406D01*
X132762365Y-108655246D01*
X132719907Y-108667582D01*
X132713081Y-108671619D01*
X132702472Y-108677893D01*
X132684724Y-108686588D01*
X132665883Y-108694048D01*
X132659467Y-108698710D01*
X132659466Y-108698710D01*
X132630113Y-108720036D01*
X132620193Y-108726552D01*
X132588965Y-108745020D01*
X132588962Y-108745022D01*
X132582138Y-108749058D01*
X132571895Y-108759301D01*
X132509583Y-108793327D01*
X132438768Y-108788262D01*
X132381932Y-108745715D01*
X132357121Y-108679195D01*
X132356800Y-108670206D01*
X132356800Y-105276100D01*
X132376802Y-105207979D01*
X132430458Y-105161486D01*
X132482800Y-105150100D01*
X132543787Y-105150100D01*
X132550239Y-105148728D01*
X132550244Y-105148728D01*
X132718403Y-105112984D01*
X132789194Y-105118386D01*
G37*
%TD.AperFunction*%
%TD*%
M02*
